<?xml version="1.0" encoding="UTF-8"?>
<svg xmlns="http://www.w3.org/2000/svg" xmlns:xlink="http://www.w3.org/1999/xlink" width="450pt" height="349pt" viewBox="0 0 450 349" version="1.1">
<g id="surface1">
<path style=" stroke:none;fill-rule:nonzero;fill:rgb(100%,72.156863%,72.156863%);fill-opacity:1;" d="M 223.289062 344.195312 L 218.5 344.195312 L 216.21875 325.703125 L 223.289062 325.703125 Z M 223.289062 344.195312 "/>
<path style=" stroke:none;fill-rule:nonzero;fill:rgb(18.431373%,18.039216%,25.490196%);fill-opacity:1;" d="M 224.507812 348.84375 L 209.066406 348.839844 L 209.066406 348.644531 C 209.066406 345.324219 211.757812 342.628906 215.078125 342.628906 L 224.507812 342.628906 Z M 224.507812 348.84375 "/>
<path style=" stroke:none;fill-rule:nonzero;fill:rgb(100%,72.156863%,72.156863%);fill-opacity:1;" d="M 276.789062 339.707031 L 272.273438 341.308594 L 263.960938 324.640625 L 270.621094 322.277344 Z M 276.789062 339.707031 "/>
<path style=" stroke:none;fill-rule:nonzero;fill:rgb(18.431373%,18.039216%,25.490196%);fill-opacity:1;" d="M 279.492188 343.679688 L 264.933594 348.84375 L 264.867188 348.65625 C 263.761719 345.523438 265.398438 342.085938 268.527344 340.976562 L 277.417969 337.824219 Z M 279.492188 343.679688 "/>
<path style=" stroke:none;fill-rule:nonzero;fill:rgb(18.431373%,18.039216%,25.490196%);fill-opacity:1;" d="M 223.152344 337.984375 C 223.046875 337.984375 222.9375 337.976562 222.832031 337.957031 L 216.976562 336.890625 C 216.15625 336.738281 215.550781 336.03125 215.53125 335.195312 C 214.679688 295.730469 218.867188 269.210938 227.972656 250.203125 C 228.304688 249.511719 229.046875 249.117188 229.804688 249.230469 L 250.867188 252.277344 C 251.65625 252.390625 252.269531 253.023438 252.359375 253.820312 L 254.21875 270.207031 C 254.226562 270.292969 254.246094 270.382812 254.273438 270.464844 L 274.464844 331.03125 C 274.753906 331.945312 274.253906 332.925781 273.347656 333.230469 L 267.890625 335.054688 C 267.058594 335.324219 266.15625 334.949219 265.761719 334.171875 L 238.449219 282.613281 C 238.335938 282.390625 238.097656 282.261719 237.851562 282.292969 C 237.605469 282.324219 237.402344 282.507812 237.351562 282.75 L 224.863281 336.601562 C 224.691406 337.410156 223.980469 337.984375 223.152344 337.984375 Z M 223.152344 337.984375 "/>
<path style=" stroke:none;fill-rule:nonzero;fill:rgb(100%,72.156863%,72.156863%);fill-opacity:1;" d="M 206.507812 218.242188 C 206.558594 218.453125 206.589844 218.667969 206.601562 218.882812 L 223.382812 228.574219 L 227.464844 226.222656 L 231.8125 231.921875 L 224.996094 236.785156 C 223.863281 237.59375 222.335938 237.554688 221.246094 236.695312 L 203.941406 223.027344 C 202.339844 223.621094 200.542969 223.160156 199.421875 221.871094 C 198.304688 220.585938 198.097656 218.738281 198.902344 217.234375 C 199.710938 215.730469 201.363281 214.886719 203.054688 215.109375 C 204.742188 215.332031 206.121094 216.578125 206.507812 218.242188 Z M 206.507812 218.242188 "/>
<path style=" stroke:none;fill-rule:nonzero;fill:rgb(42.352941%,38.823529%,100%);fill-opacity:1;" d="M 223.613281 227.605469 C 223.71875 227.101562 224.03125 226.671875 224.480469 226.421875 L 232.179688 222.109375 C 234.308594 220.464844 237.367188 220.855469 239.019531 222.984375 C 240.667969 225.109375 240.289062 228.175781 238.167969 229.832031 L 232.027344 236.214844 C 231.671875 236.582031 231.175781 236.777344 230.664062 236.75 C 230.152344 236.722656 229.679688 236.472656 229.367188 236.070312 L 223.945312 229.03125 C 223.632812 228.628906 223.511719 228.105469 223.613281 227.605469 Z M 223.613281 227.605469 "/>
<path style=" stroke:none;fill-rule:nonzero;fill:rgb(100%,72.156863%,72.156863%);fill-opacity:1;" d="M 251.144531 207.667969 C 251.144531 212.972656 246.847656 217.273438 241.546875 217.273438 C 236.25 217.273438 231.953125 212.972656 231.953125 207.667969 C 231.953125 202.363281 236.25 198.066406 241.546875 198.066406 C 246.847656 198.066406 251.144531 202.363281 251.144531 207.667969 Z M 251.144531 207.667969 "/>
<path style=" stroke:none;fill-rule:nonzero;fill:rgb(42.352941%,38.823529%,100%);fill-opacity:1;" d="M 250.890625 254.324219 C 250.796875 254.324219 250.699219 254.316406 250.605469 254.300781 L 229.84375 250.894531 C 229.367188 250.816406 228.945312 250.546875 228.675781 250.148438 C 228.402344 249.753906 228.308594 249.261719 228.40625 248.792969 L 229.417969 244.023438 C 228.898438 243.253906 224.6875 236.539062 229.816406 230.230469 C 229.613281 225.570312 233.152344 221.59375 237.800781 221.265625 L 248.53125 220.449219 C 251.332031 220.238281 254.0625 221.398438 255.851562 223.570312 C 257.640625 225.738281 258.261719 228.640625 257.523438 231.355469 L 252.605469 252.957031 C 252.421875 253.753906 251.710938 254.324219 250.890625 254.324219 Z M 250.890625 254.324219 "/>
<path style=" stroke:none;fill-rule:nonzero;fill:rgb(100%,72.156863%,72.156863%);fill-opacity:1;" d="M 270.28125 272.386719 C 270.996094 271.371094 271.21875 270.085938 270.898438 268.886719 C 270.578125 267.6875 269.738281 266.691406 268.613281 266.167969 L 256.789062 229.777344 L 249.9375 233.035156 L 262.875 268.464844 C 262.105469 270.460938 262.949219 272.71875 264.835938 273.71875 C 266.726562 274.71875 269.066406 274.148438 270.28125 272.386719 Z M 270.28125 272.386719 "/>
<path style=" stroke:none;fill-rule:nonzero;fill:rgb(42.352941%,38.823529%,100%);fill-opacity:1;" d="M 259.40625 235.835938 L 250.308594 238.589844 C 249.785156 238.746094 249.21875 238.667969 248.753906 238.375 C 248.292969 238.082031 247.980469 237.601562 247.902344 237.058594 L 246.519531 227.675781 C 245.707031 224.910156 247.277344 222.007812 250.035156 221.183594 C 252.796875 220.355469 255.703125 221.921875 256.535156 224.679688 L 260.5625 233.230469 C 260.796875 233.726562 260.804688 234.296875 260.582031 234.800781 C 260.359375 235.300781 259.929688 235.679688 259.40625 235.835938 Z M 259.40625 235.835938 "/>
<path style=" stroke:none;fill-rule:nonzero;fill:rgb(0%,0%,0%);fill-opacity:1;" d="M 232.222656 208.039062 C 236.570312 209.699219 241.488281 208.667969 244.804688 205.394531 C 243.796875 208.058594 244.078125 219.347656 244.078125 219.347656 C 244.078125 219.347656 253.003906 215.105469 254.214844 214.363281 C 261.367188 209.980469 251.503906 190.921875 243.296875 193.925781 C 241.910156 194.4375 240.746094 195.035156 240.183594 196.40625 C 238.960938 194.890625 236.640625 194.5625 234.855469 195.339844 C 233.074219 196.117188 231.804688 197.800781 231.121094 199.625 C 230.03125 202.605469 230.316406 205.917969 231.902344 208.664062 Z M 232.222656 208.039062 "/>
<path style=" stroke:none;fill-rule:nonzero;fill:rgb(94.901961%,94.901961%,94.901961%);fill-opacity:1;" d="M 449.828125 114.285156 C 449.828125 51.167969 409.160156 0 358.996094 0 C 308.828125 0 268.160156 51.167969 268.160156 114.285156 C 268.160156 177.398438 308.828125 228.566406 358.996094 228.566406 C 409.160156 228.566406 449.828125 177.398438 449.828125 114.285156 Z M 449.828125 114.285156 "/>
<path style=" stroke:none;fill-rule:nonzero;fill:rgb(90.196078%,90.196078%,90.196078%);fill-opacity:1;" d="M 426.5625 37.949219 C 446.285156 95.992188 424.875 163.15625 378.742188 187.96875 C 342.851562 207.273438 301.171875 195.574219 275.207031 158.90625 C 294.925781 216.949219 348.308594 243.886719 394.441406 219.078125 C 440.574219 194.269531 461.988281 127.105469 442.269531 69.0625 C 438.554688 57.988281 433.265625 47.511719 426.5625 37.949219 Z M 426.5625 37.949219 "/>
<path style=" stroke:none;fill-rule:nonzero;fill:rgb(80%,80%,80%);fill-opacity:1;" d="M 359.246094 90.929688 L 359.496094 90.929688 L 363.984375 348.726562 L 354.503906 348.726562 Z M 359.246094 90.929688 "/>
<path style=" stroke:none;fill-rule:nonzero;fill:rgb(80%,80%,80%);fill-opacity:1;" d="M 358.675781 268.085938 L 373.691406 260.171875 L 375.785156 264.148438 L 360.769531 272.0625 Z M 358.675781 268.085938 "/>
<path style=" stroke:none;fill-rule:nonzero;fill:rgb(94.901961%,94.901961%,94.901961%);fill-opacity:1;" d="M 140.285156 167.324219 C 140.285156 118.785156 108.882812 79.433594 70.144531 79.433594 C 31.40625 79.433594 0 118.785156 0 167.324219 C 0 215.867188 31.40625 255.214844 70.144531 255.214844 C 108.882812 255.214844 140.285156 215.867188 140.285156 167.324219 Z M 140.285156 167.324219 "/>
<path style=" stroke:none;fill-rule:nonzero;fill:rgb(90.196078%,90.196078%,90.196078%);fill-opacity:1;" d="M 122.320312 108.621094 C 137.550781 153.257812 121.015625 204.914062 85.394531 223.996094 C 57.675781 238.839844 25.492188 229.84375 5.441406 201.640625 C 20.667969 246.28125 61.890625 267 97.515625 247.917969 C 133.140625 228.839844 149.675781 177.183594 134.449219 132.546875 C 131.582031 124.027344 127.496094 115.96875 122.320312 108.621094 Z M 122.320312 108.621094 "/>
<path style=" stroke:none;fill-rule:nonzero;fill:rgb(80%,80%,80%);fill-opacity:1;" d="M 70.335938 149.652344 L 70.527344 149.652344 L 73.996094 348.726562 L 66.675781 348.726562 Z M 70.335938 149.652344 "/>
<path style=" stroke:none;fill-rule:nonzero;fill:rgb(80%,80%,80%);fill-opacity:1;" d="M 69.898438 289.3125 L 81.492188 283.203125 L 83.109375 286.273438 L 71.511719 292.386719 Z M 69.898438 289.3125 "/>
<path style=" stroke:none;fill-rule:nonzero;fill:rgb(80%,80%,80%);fill-opacity:1;" d="M 410.707031 349 L 11.390625 349 C 11.105469 349 10.878906 348.769531 10.878906 348.488281 C 10.878906 348.203125 11.105469 347.976562 11.390625 347.976562 L 410.707031 347.976562 C 410.988281 347.976562 411.21875 348.203125 411.21875 348.488281 C 411.21875 348.769531 410.988281 349 410.707031 349 Z M 410.707031 349 "/>
<path style=" stroke:none;fill-rule:evenodd;fill:rgb(24.705882%,23.921569%,33.72549%);fill-opacity:1;" d="M 219.730469 88.96875 C 219.730469 83.972656 215.820312 79.847656 210.835938 79.589844 C 205.851562 79.328125 201.535156 83.019531 201.011719 87.988281 C 200.492188 92.960938 203.949219 97.46875 208.878906 98.25 L 208.878906 91.683594 L 206.496094 91.683594 L 206.496094 88.96875 L 208.878906 88.96875 L 208.878906 86.898438 C 208.878906 84.542969 210.28125 83.242188 212.425781 83.242188 C 213.128906 83.253906 213.832031 83.3125 214.527344 83.425781 L 214.527344 85.738281 L 213.339844 85.738281 C 212.933594 85.683594 212.523438 85.820312 212.226562 86.105469 C 211.925781 86.390625 211.773438 86.796875 211.8125 87.207031 L 211.8125 88.96875 L 214.414062 88.96875 L 214 91.683594 L 211.8125 91.683594 L 211.8125 98.25 C 216.371094 97.527344 219.730469 93.589844 219.730469 88.96875 Z M 219.730469 88.96875 "/>
<path style=" stroke:none;fill-rule:nonzero;fill:rgb(24.705882%,23.921569%,33.72549%);fill-opacity:1;" d="M 176.335938 116.875 L 178.042969 116.535156 C 177.519531 117.144531 176.945312 117.71875 176.335938 118.246094 C 176.308594 118.585938 176.308594 118.929688 176.335938 119.269531 C 173.054688 133.367188 160.953125 127.140625 160.953125 127.140625 C 165.363281 127.242188 165.738281 125.429688 165.738281 125.429688 C 163.175781 125.054688 162.664062 123.375 162.664062 123.375 C 163.140625 123.628906 163.726562 123.480469 164.03125 123.035156 C 162.472656 122.679688 161.4375 121.199219 161.636719 119.613281 C 162.132812 119.96875 162.707031 120.191406 163.3125 120.261719 C 163.003906 119.886719 160.40625 116.773438 161.980469 115.164062 C 161.980469 115.164062 163.894531 118.585938 168.917969 118.894531 L 169.257812 118.824219 C 169.203125 118.578125 169.179688 118.324219 169.191406 118.074219 C 169.191406 116.089844 170.796875 114.480469 172.78125 114.480469 C 175.171875 114.480469 175.683594 115.847656 175.683594 115.847656 L 177.394531 114.824219 C 177.359375 114.824219 177.1875 116.535156 176.335938 116.875 Z M 176.335938 116.875 "/>
<path style=" stroke:none;fill-rule:nonzero;fill:rgb(24.705882%,23.921569%,33.72549%);fill-opacity:1;" d="M 218.46875 139.691406 L 211.25 139.691406 C 208.464844 139.699219 206.207031 141.957031 206.199219 144.75 L 206.199219 151.972656 C 206.207031 154.761719 208.464844 157.023438 211.25 157.03125 L 218.46875 157.03125 C 221.253906 157.023438 223.511719 154.761719 223.519531 151.972656 L 223.519531 144.75 C 223.511719 141.957031 221.253906 139.699219 218.46875 139.691406 Z M 218.46875 139.691406 "/>
<path style=" stroke:none;fill-rule:nonzero;fill:rgb(100%,100%,100%);fill-opacity:1;" d="M 219.550781 144.75 C 218.953125 144.746094 218.472656 144.261719 218.472656 143.664062 C 218.472656 143.070312 218.957031 142.585938 219.550781 142.585938 C 220.148438 142.585938 220.632812 143.070312 220.632812 143.664062 C 220.632812 144.261719 220.152344 144.746094 219.554688 144.75 Z M 219.550781 144.75 "/>
<path style=" stroke:none;fill-rule:nonzero;fill:rgb(100%,100%,100%);fill-opacity:1;" d="M 214.859375 145.46875 C 216.453125 145.46875 217.746094 146.765625 217.746094 148.359375 C 217.746094 149.957031 216.453125 151.25 214.859375 151.25 C 213.265625 151.25 211.972656 149.957031 211.972656 148.359375 C 211.972656 146.765625 213.265625 145.46875 214.859375 145.46875 M 214.859375 144.027344 C 212.46875 144.027344 210.527344 145.964844 210.527344 148.359375 C 210.527344 150.753906 212.46875 152.695312 214.859375 152.695312 C 217.25 152.695312 219.1875 150.753906 219.1875 148.359375 C 219.1875 145.964844 217.25 144.027344 214.859375 144.027344 Z M 214.859375 144.027344 "/>
<path style=" stroke:none;fill-rule:nonzero;fill:rgb(24.705882%,23.921569%,33.72549%);fill-opacity:1;" d="M 190.703125 182.480469 C 186.25 182.480469 182.402344 185.605469 181.492188 189.972656 C 180.578125 194.335938 182.84375 198.746094 186.925781 200.535156 C 186.886719 199.808594 186.941406 199.082031 187.089844 198.371094 C 187.269531 197.605469 188.300781 193.238281 188.300781 193.238281 C 188.09375 192.765625 187.992188 192.257812 187.996094 191.746094 C 187.996094 190.351562 188.804688 189.308594 189.8125 189.308594 C 190.175781 189.300781 190.527344 189.453125 190.769531 189.726562 C 191.011719 189.996094 191.125 190.359375 191.082031 190.722656 C 191.082031 191.582031 190.53125 192.871094 190.25 194.066406 C 190.136719 194.515625 190.242188 194.992188 190.535156 195.347656 C 190.828125 195.707031 191.277344 195.902344 191.738281 195.878906 C 193.519531 195.878906 194.722656 193.585938 194.722656 190.867188 C 194.722656 188.800781 193.332031 187.257812 190.804688 187.257812 C 189.582031 187.210938 188.394531 187.667969 187.519531 188.519531 C 186.644531 189.371094 186.15625 190.550781 186.167969 191.773438 C 186.140625 192.445312 186.363281 193.101562 186.792969 193.621094 C 186.945312 193.746094 187 193.960938 186.925781 194.144531 C 186.878906 194.316406 186.777344 194.734375 186.734375 194.902344 C 186.714844 195.003906 186.652344 195.09375 186.558594 195.140625 C 186.464844 195.1875 186.355469 195.1875 186.261719 195.136719 C 184.945312 194.597656 184.332031 193.160156 184.332031 191.535156 C 184.332031 188.863281 186.589844 185.652344 191.0625 185.652344 C 194.652344 185.652344 197.019531 188.253906 197.019531 191.050781 C 197.019531 194.746094 194.964844 197.507812 191.9375 197.507812 C 191.023438 197.53125 190.160156 197.089844 189.640625 196.332031 C 189.640625 196.332031 189.09375 198.503906 188.976562 198.925781 C 188.757812 199.640625 188.441406 200.320312 188.03125 200.941406 C 191.566406 201.988281 195.386719 200.871094 197.804688 198.085938 C 200.222656 195.300781 200.792969 191.355469 199.265625 187.996094 C 197.738281 184.636719 194.390625 182.480469 190.703125 182.480469 Z M 190.703125 182.480469 "/>
<path style=" stroke:none;fill-rule:nonzero;fill:rgb(24.705882%,23.921569%,33.72549%);fill-opacity:1;" d="M 210.347656 105.824219 C 201.015625 105.824219 193.453125 98.253906 193.453125 88.914062 C 193.453125 79.574219 201.015625 72 210.347656 72 C 219.675781 72 227.242188 79.574219 227.242188 88.914062 C 227.230469 98.25 219.671875 105.8125 210.347656 105.824219 Z M 210.347656 73.027344 C 201.582031 73.027344 194.476562 80.136719 194.476562 88.914062 C 194.476562 97.6875 201.582031 104.800781 210.347656 104.800781 C 219.109375 104.800781 226.214844 97.6875 226.214844 88.914062 C 226.207031 80.144531 219.105469 73.035156 210.347656 73.027344 Z M 210.347656 73.027344 "/>
<path style=" stroke:none;fill-rule:nonzero;fill:rgb(24.705882%,23.921569%,33.72549%);fill-opacity:1;" d="M 169.5 138.40625 C 160.167969 138.40625 152.605469 130.835938 152.605469 121.496094 C 152.605469 112.15625 160.167969 104.582031 169.5 104.582031 C 178.828125 104.582031 186.394531 112.15625 186.394531 121.496094 C 186.382812 130.832031 178.824219 138.398438 169.5 138.40625 Z M 169.5 105.609375 C 160.734375 105.609375 153.628906 112.722656 153.628906 121.496094 C 153.628906 130.269531 160.734375 137.382812 169.5 137.382812 C 178.265625 137.382812 185.371094 130.269531 185.371094 121.496094 C 185.359375 112.726562 178.257812 105.617188 169.5 105.609375 Z M 169.5 105.609375 "/>
<path style=" stroke:none;fill-rule:nonzero;fill:rgb(24.705882%,23.921569%,33.72549%);fill-opacity:1;" d="M 214.859375 165.273438 C 205.527344 165.273438 197.964844 157.699219 197.964844 148.359375 C 197.964844 139.019531 205.527344 131.449219 214.859375 131.449219 C 224.191406 131.449219 231.753906 139.019531 231.753906 148.359375 C 231.742188 157.695312 224.183594 165.261719 214.859375 165.273438 Z M 214.859375 132.472656 C 206.09375 132.472656 198.988281 139.585938 198.988281 148.359375 C 198.988281 157.132812 206.09375 164.246094 214.859375 164.246094 C 223.625 164.246094 230.730469 157.132812 230.730469 148.359375 C 230.71875 139.589844 223.621094 132.484375 214.859375 132.472656 Z M 214.859375 132.472656 "/>
<path style=" stroke:none;fill-rule:nonzero;fill:rgb(24.705882%,23.921569%,33.72549%);fill-opacity:1;" d="M 190.703125 208.816406 C 181.371094 208.816406 173.808594 201.246094 173.808594 191.90625 C 173.808594 182.566406 181.371094 174.992188 190.703125 174.992188 C 200.035156 174.992188 207.597656 182.566406 207.597656 191.90625 C 207.585938 201.242188 200.027344 208.808594 190.703125 208.816406 Z M 190.703125 176.019531 C 181.9375 176.019531 174.832031 183.132812 174.832031 191.90625 C 174.832031 200.679688 181.9375 207.792969 190.703125 207.792969 C 199.46875 207.792969 206.574219 200.679688 206.574219 191.90625 C 206.5625 183.136719 199.464844 176.027344 190.703125 176.019531 Z M 190.703125 176.019531 "/>
</g>
</svg>
