<?xml version="1.0" encoding="UTF-8"?>
<svg xmlns="http://www.w3.org/2000/svg" xmlns:xlink="http://www.w3.org/1999/xlink" width="379pt" height="332pt" viewBox="0 0 379 332" version="1.1">
<g id="surface1">
<path style=" stroke:none;fill-rule:nonzero;fill:rgb(94.901961%,94.901961%,94.901961%);fill-opacity:1;" d="M 71.179688 233.890625 L 67.273438 264.738281 L 61.523438 229.695312 C 33.898438 219.070312 1.59375 217.003906 1.59375 217.003906 C 1.59375 217.003906 -5.535156 283.933594 18.003906 311.921875 C 41.539062 339.90625 66.351562 335.652344 86.824219 318.351562 C 107.296875 301.050781 115.675781 277.25 92.140625 249.265625 C 86.902344 243.035156 79.507812 237.984375 71.179688 233.890625 Z M 71.179688 233.890625 "/>
<path style=" stroke:none;fill-rule:nonzero;fill:rgb(100%,100%,100%);fill-opacity:1;" d="M 63.519531 269.402344 L 64.679688 270.785156 C 78.082031 286.886719 85.90625 301.675781 88.023438 314.960938 C 88.054688 315.152344 88.078125 315.34375 88.113281 315.539062 L 87.214844 315.675781 L 86.351562 315.800781 C 84.222656 301.324219 74.992188 286.121094 63.304688 272.074219 C 62.933594 271.617188 62.554688 271.152344 62.164062 270.703125 C 57.164062 264.796875 51.765625 259.113281 46.292969 253.785156 C 45.875 253.367188 45.441406 252.953125 45.007812 252.535156 C 37.75 245.539062 30.421875 239.183594 23.878906 233.8125 C 23.417969 233.429688 22.953125 233.054688 22.488281 232.6875 C 11.375 223.640625 2.722656 217.605469 0.789062 216.28125 C 0.558594 216.113281 0.425781 216.027344 0.398438 216.003906 L 0.890625 215.273438 L 0.890625 215.261719 L 1.390625 214.523438 C 1.417969 214.546875 1.863281 214.835938 2.660156 215.398438 C 5.664062 217.488281 13.730469 223.230469 23.734375 231.339844 C 24.183594 231.707031 24.652344 232.085938 25.113281 232.464844 C 30.429688 236.816406 36.234375 241.796875 42.082031 247.226562 C 43.554688 248.589844 44.988281 249.945312 46.382812 251.300781 C 46.824219 251.714844 47.257812 252.128906 47.675781 252.546875 C 53.59375 258.304688 58.875 263.925781 63.519531 269.402344 Z M 63.519531 269.402344 "/>
<path style=" stroke:none;fill-rule:nonzero;fill:rgb(100%,100%,100%);fill-opacity:1;" d="M 23.734375 231.339844 C 23.332031 231.789062 22.917969 232.242188 22.488281 232.6875 C 21.324219 233.894531 20.097656 235.046875 18.8125 236.132812 C 13.351562 240.761719 6.921875 244.101562 0 245.910156 C 0.0195312 246.511719 0.0351562 247.117188 0.0546875 247.734375 C 7.382812 245.886719 14.191406 242.386719 19.960938 237.496094 C 21.332031 236.339844 22.640625 235.109375 23.878906 233.8125 C 24.304688 233.375 24.714844 232.921875 25.113281 232.464844 C 28.425781 228.742188 31.152344 224.53125 33.207031 219.984375 C 32.597656 219.855469 32 219.730469 31.417969 219.605469 C 29.445312 223.875 26.859375 227.828125 23.734375 231.339844 Z M 23.734375 231.339844 "/>
<path style=" stroke:none;fill-rule:nonzero;fill:rgb(100%,100%,100%);fill-opacity:1;" d="M 46.382812 251.300781 C 45.9375 251.726562 45.480469 252.136719 45.007812 252.535156 C 44.871094 252.664062 44.722656 252.789062 44.578125 252.910156 C 32.550781 263.074219 16.324219 266.695312 1.128906 262.605469 C 1.195312 263.238281 1.261719 263.875 1.339844 264.507812 C 16.917969 268.46875 33.441406 264.65625 45.726562 254.277344 C 45.917969 254.113281 46.109375 253.953125 46.292969 253.785156 C 46.765625 253.375 47.222656 252.964844 47.675781 252.546875 C 54.636719 246.027344 59.574219 237.632812 61.902344 228.375 C 61.34375 228.15625 60.789062 227.9375 60.226562 227.722656 C 58 236.765625 53.1875 244.960938 46.382812 251.300781 Z M 46.382812 251.300781 "/>
<path style=" stroke:none;fill-rule:nonzero;fill:rgb(100%,100%,100%);fill-opacity:1;" d="M 63.519531 269.402344 C 63.078125 269.847656 62.621094 270.277344 62.164062 270.703125 C 61.667969 271.152344 61.171875 271.597656 60.660156 272.03125 C 44.289062 285.835938 20.800781 287.167969 2.976562 275.308594 C 3.136719 276.121094 3.289062 276.925781 3.460938 277.726562 C 21.808594 289.042969 45.324219 287.296875 61.808594 273.398438 C 62.320312 272.964844 62.824219 272.527344 63.304688 272.074219 C 63.777344 271.652344 64.230469 271.21875 64.679688 270.785156 C 73.675781 261.886719 78.964844 249.898438 79.472656 237.238281 C 78.90625 236.855469 78.324219 236.496094 77.734375 236.128906 C 77.492188 248.652344 72.394531 260.585938 63.519531 269.402344 Z M 63.519531 269.402344 "/>
<path style=" stroke:none;fill-rule:nonzero;fill:rgb(24.705882%,23.921569%,33.72549%);fill-opacity:1;" d="M 217.414062 78.507812 L 217.414062 28.78125 C 217.414062 12.886719 204.558594 0 188.703125 0 L 83.605469 0 C 67.75 0 54.894531 12.886719 54.894531 28.78125 L 54.894531 61.808594 L 53.046875 61.808594 L 53.046875 73.445312 L 54.894531 73.445312 L 54.894531 85.855469 L 53.046875 85.855469 L 53.046875 103.699219 L 54.894531 103.699219 L 54.894531 111.457031 L 53.046875 111.457031 L 53.046875 129.300781 L 54.894531 129.300781 L 54.894531 301.59375 C 54.894531 317.488281 67.75 330.375 83.605469 330.375 L 188.703125 330.375 C 204.558594 330.375 217.414062 317.488281 217.414062 301.59375 L 217.414062 113.90625 L 219.226562 113.90625 L 219.226562 78.507812 Z M 217.414062 78.507812 "/>
<path style=" stroke:none;fill-rule:nonzero;fill:rgb(100%,100%,100%);fill-opacity:1;" d="M 189.863281 7.488281 L 176.144531 7.488281 C 177.425781 10.636719 177.058594 14.21875 175.164062 17.039062 C 173.273438 19.863281 170.105469 21.554688 166.710938 21.554688 L 106.503906 21.554688 C 103.109375 21.554688 99.941406 19.863281 98.046875 17.039062 C 96.15625 14.21875 95.789062 10.636719 97.070312 7.488281 L 84.257812 7.488281 C 72.417969 7.488281 62.816406 17.109375 62.816406 28.980469 L 62.816406 301.394531 C 62.816406 313.261719 72.417969 322.886719 84.257812 322.886719 L 189.863281 322.886719 C 201.703125 322.886719 211.300781 313.261719 211.300781 301.394531 L 211.300781 28.980469 C 211.300781 17.109375 201.703125 7.488281 189.863281 7.488281 Z M 189.863281 7.488281 "/>
<path style=" stroke:none;fill-rule:nonzero;fill:rgb(25.098039%,41.960784%,90.196078%);fill-opacity:1;" d="M 192.519531 102.289062 L 81.601562 102.289062 C 79.992188 102.289062 78.6875 100.980469 78.6875 99.367188 L 78.6875 54.25 C 78.6875 52.636719 79.992188 51.332031 81.601562 51.328125 L 192.519531 51.328125 C 194.128906 51.332031 195.429688 52.636719 195.433594 54.25 L 195.433594 99.367188 C 195.429688 100.980469 194.128906 102.289062 192.519531 102.289062 Z M 192.519531 102.289062 "/>
<path style=" stroke:none;fill-rule:nonzero;fill:rgb(25.098039%,41.960784%,90.196078%);fill-opacity:1;" d="M 181.957031 123.640625 L 92.164062 123.640625 C 90.390625 123.640625 88.957031 122.199219 88.957031 120.425781 C 88.957031 118.648438 90.390625 117.210938 92.164062 117.210938 L 181.957031 117.210938 C 183.726562 117.210938 185.164062 118.648438 185.164062 120.425781 C 185.164062 122.199219 183.726562 123.640625 181.957031 123.640625 Z M 181.957031 123.640625 "/>
<path style=" stroke:none;fill-rule:nonzero;fill:rgb(89.411765%,89.411765%,89.411765%);fill-opacity:1;" d="M 181.957031 140.007812 L 92.164062 140.007812 C 90.230469 140.007812 88.664062 138.4375 88.664062 136.5 C 88.664062 134.5625 90.230469 132.992188 92.164062 132.992188 L 181.957031 132.992188 C 183.890625 132.992188 185.457031 134.5625 185.457031 136.5 C 185.457031 138.4375 183.890625 140.007812 181.957031 140.007812 Z M 181.957031 140.007812 "/>
<path style=" stroke:none;fill-rule:nonzero;fill:rgb(89.411765%,89.411765%,89.411765%);fill-opacity:1;" d="M 181.957031 156.078125 L 92.164062 156.078125 C 90.230469 156.078125 88.664062 154.507812 88.664062 152.574219 C 88.664062 150.636719 90.230469 149.066406 92.164062 149.066406 L 181.957031 149.066406 C 183.890625 149.066406 185.457031 150.636719 185.457031 152.574219 C 185.457031 154.507812 183.890625 156.078125 181.957031 156.078125 Z M 181.957031 156.078125 "/>
<path style=" stroke:none;fill-rule:nonzero;fill:rgb(89.411765%,89.411765%,89.411765%);fill-opacity:1;" d="M 192.519531 237.3125 L 81.601562 237.3125 C 79.992188 237.308594 78.6875 236 78.6875 234.386719 L 78.6875 189.273438 C 78.6875 187.660156 79.992188 186.351562 81.601562 186.351562 L 192.519531 186.351562 C 194.128906 186.351562 195.429688 187.660156 195.433594 189.273438 L 195.433594 234.386719 C 195.429688 236 194.128906 237.308594 192.519531 237.3125 Z M 192.519531 237.3125 "/>
<path style=" stroke:none;fill-rule:nonzero;fill:rgb(89.411765%,89.411765%,89.411765%);fill-opacity:1;" d="M 181.957031 258.953125 L 92.164062 258.953125 C 90.230469 258.953125 88.664062 257.382812 88.664062 255.445312 C 88.664062 253.507812 90.230469 251.9375 92.164062 251.9375 L 181.957031 251.9375 C 183.890625 251.9375 185.457031 253.507812 185.457031 255.445312 C 185.457031 257.382812 183.890625 258.953125 181.957031 258.953125 Z M 181.957031 258.953125 "/>
<path style=" stroke:none;fill-rule:nonzero;fill:rgb(89.411765%,89.411765%,89.411765%);fill-opacity:1;" d="M 181.957031 275.027344 L 92.164062 275.027344 C 90.230469 275.027344 88.664062 273.457031 88.664062 271.519531 C 88.664062 269.582031 90.230469 268.011719 92.164062 268.011719 L 181.957031 268.011719 C 183.890625 268.011719 185.457031 269.582031 185.457031 271.519531 C 185.457031 273.457031 183.890625 275.027344 181.957031 275.027344 Z M 181.957031 275.027344 "/>
<path style=" stroke:none;fill-rule:nonzero;fill:rgb(89.411765%,89.411765%,89.411765%);fill-opacity:1;" d="M 181.957031 291.101562 L 92.164062 291.101562 C 90.230469 291.101562 88.664062 289.53125 88.664062 287.59375 C 88.664062 285.65625 90.230469 284.085938 92.164062 284.085938 L 181.957031 284.085938 C 183.890625 284.085938 185.457031 285.65625 185.457031 287.59375 C 185.457031 289.53125 183.890625 291.101562 181.957031 291.101562 Z M 181.957031 291.101562 "/>
<path style=" stroke:none;fill-rule:nonzero;fill:rgb(18.431373%,18.039216%,25.490196%);fill-opacity:1;" d="M 282.734375 85.535156 C 281.609375 77.242188 280.195312 68.335938 274.359375 62.347656 C 270.617188 58.511719 265.472656 56.371094 260.117188 56.425781 C 254.765625 56.480469 249.667969 58.726562 246.003906 62.644531 C 241.757812 67.1875 239.882812 73.566406 239.710938 79.789062 C 239.539062 86.011719 240.921875 92.167969 242.453125 98.203125 C 250.574219 98.363281 258.632812 96.773438 266.082031 93.539062 C 267.90625 92.644531 269.800781 91.902344 271.746094 91.308594 C 273.714844 90.808594 275.117188 92.070312 276.949219 92.953125 L 277.953125 91.023438 C 278.777344 92.558594 281.324219 92.105469 282.25 90.628906 C 283.171875 89.152344 282.972656 87.261719 282.734375 85.535156 Z M 282.734375 85.535156 "/>
<path style=" stroke:none;fill-rule:nonzero;fill:rgb(61.960784%,38.039216%,41.568627%);fill-opacity:1;" d="M 357.097656 312.714844 L 351.132812 316.667969 L 333.085938 295.496094 L 341.886719 289.660156 Z M 357.097656 312.714844 "/>
<path style=" stroke:none;fill-rule:nonzero;fill:rgb(18.431373%,18.039216%,25.490196%);fill-opacity:1;" d="M 362.4375 317.5 L 343.214844 330.246094 L 343.050781 330.003906 C 340.320312 325.859375 341.453125 320.28125 345.585938 317.539062 L 357.328125 309.753906 Z M 362.4375 317.5 "/>
<path style=" stroke:none;fill-rule:nonzero;fill:rgb(61.960784%,38.039216%,41.568627%);fill-opacity:1;" d="M 280.128906 323.300781 L 272.980469 323.300781 L 269.578125 295.660156 L 280.128906 295.660156 Z M 280.128906 323.300781 "/>
<path style=" stroke:none;fill-rule:nonzero;fill:rgb(18.431373%,18.039216%,25.490196%);fill-opacity:1;" d="M 281.949219 330.246094 L 258.902344 330.246094 L 258.902344 329.953125 C 258.902344 324.988281 262.917969 320.960938 267.871094 320.960938 L 281.949219 320.960938 Z M 281.949219 330.246094 "/>
<path style=" stroke:none;fill-rule:nonzero;fill:rgb(61.960784%,38.039216%,41.568627%);fill-opacity:1;" d="M 229.265625 133.355469 L 202.277344 114.027344 C 202.609375 111.203125 200.644531 108.628906 197.839844 108.210938 C 195.035156 107.789062 192.40625 109.679688 191.902344 112.476562 C 191.398438 115.273438 193.203125 117.964844 195.976562 118.554688 C 199.347656 121.394531 223.992188 145.960938 227.519531 144.667969 C 231.101562 143.351562 246.757812 140.96875 246.757812 140.96875 L 247.191406 126.066406 Z M 229.265625 133.355469 "/>
<path style=" stroke:none;fill-rule:nonzero;fill:rgb(18.431373%,18.039216%,25.490196%);fill-opacity:1;" d="M 250.472656 168.519531 L 250.726562 202.523438 C 250.726562 202.523438 256.566406 252.910156 258.722656 261.421875 C 260.875 269.933594 269.621094 309.316406 269.621094 309.316406 L 283.835938 307.019531 L 274.683594 255.527344 L 277.449219 212.847656 L 293.402344 255.621094 L 333.917969 298.074219 L 344.1875 289.769531 L 308.921875 237.816406 L 298.152344 195.257812 C 298.152344 195.257812 299.492188 173.246094 287.421875 164.769531 Z M 250.472656 168.519531 "/>
<path style=" stroke:none;fill-rule:nonzero;fill:rgb(61.960784%,38.039216%,41.568627%);fill-opacity:1;" d="M 274.21875 78.121094 C 274.21875 86.75 267.242188 93.742188 258.636719 93.742188 C 250.03125 93.742188 243.058594 86.75 243.058594 78.121094 C 243.058594 69.496094 250.03125 62.503906 258.636719 62.503906 C 267.242188 62.503906 274.21875 69.496094 274.21875 78.121094 Z M 274.21875 78.121094 "/>
<path style=" stroke:none;fill-rule:nonzero;fill:rgb(18.431373%,18.039216%,25.490196%);fill-opacity:1;" d="M 256.902344 186.964844 L 262.691406 174.003906 L 279.496094 181.550781 L 273.703125 194.507812 Z M 256.902344 186.964844 "/>
<path style=" stroke:none;fill-rule:nonzero;fill:rgb(89.411765%,89.411765%,89.411765%);fill-opacity:1;" d="M 283.59375 108.175781 C 281.757812 104.511719 280.863281 99.984375 276.949219 98.796875 C 274.304688 97.996094 263.617188 99.199219 261.207031 100.550781 C 257.199219 102.804688 260.832031 107.023438 258.464844 110.972656 C 255.898438 115.265625 253.328125 119.554688 250.757812 123.847656 C 248.988281 126.800781 247.203125 129.792969 246.25 133.097656 C 245.292969 136.402344 245.25 140.113281 246.875 143.144531 C 248.332031 145.855469 250.972656 147.78125 252.433594 150.488281 C 253.957031 153.304688 251.222656 165.878906 249.808594 168.75 L 250.488281 169.066406 C 259.914062 169.621094 269.367188 169.300781 278.734375 168.113281 C 281.0625 167.816406 283.476562 167.433594 285.390625 166.078125 C 288.210938 164.085938 289.328125 160.46875 290.027344 157.082031 C 293.382812 140.515625 291.117188 123.300781 283.59375 108.175781 Z M 283.59375 108.175781 "/>
<path style=" stroke:none;fill-rule:nonzero;fill:rgb(89.411765%,89.411765%,89.411765%);fill-opacity:1;" d="M 251.707031 143.648438 C 255.925781 139.492188 260.167969 135.308594 263.644531 130.503906 C 267.121094 125.703125 269.820312 120.203125 270.574219 114.320312 C 270.898438 112.441406 270.769531 110.515625 270.203125 108.699219 C 269.554688 106.914062 268.121094 105.332031 266.273438 104.925781 C 263.316406 104.277344 260.628906 106.640625 258.515625 108.820312 C 252.292969 115.234375 246.070312 121.652344 239.847656 128.070312 C 243.8125 133.300781 247.777344 138.53125 251.738281 143.761719 Z M 251.707031 143.648438 "/>
<path style=" stroke:none;fill-rule:nonzero;fill:rgb(61.960784%,38.039216%,41.568627%);fill-opacity:1;" d="M 297.714844 146.851562 C 296.402344 143.261719 294.027344 127.566406 294.027344 127.566406 L 279.160156 127.128906 L 286.429688 145.101562 L 266.597656 172.933594 C 266.597656 172.933594 266.632812 172.992188 266.699219 173.101562 C 264.566406 172.757812 262.441406 173.761719 261.34375 175.632812 C 260.25 177.5 260.414062 179.851562 261.75 181.550781 C 263.089844 183.253906 265.332031 183.957031 267.402344 183.324219 C 269.46875 182.691406 270.9375 180.851562 271.097656 178.691406 C 271.25 178.777344 271.441406 178.742188 271.554688 178.613281 C 273.761719 175.835938 299.023438 150.441406 297.714844 146.851562 Z M 297.714844 146.851562 "/>
<path style=" stroke:none;fill-rule:nonzero;fill:rgb(89.411765%,89.411765%,89.411765%);fill-opacity:1;" d="M 299.226562 136.941406 C 297.859375 131.167969 296.484375 125.363281 294.183594 119.898438 C 291.886719 114.429688 288.589844 109.265625 283.960938 105.574219 C 282.523438 104.324219 280.8125 103.4375 278.96875 102.984375 C 277.109375 102.617188 275.019531 103.027344 273.714844 104.402344 C 271.628906 106.601562 272.257812 110.132812 273.023438 113.070312 C 275.277344 121.726562 277.535156 130.386719 279.789062 139.046875 C 286.304688 138.351562 292.820312 137.660156 299.335938 136.96875 Z M 299.226562 136.941406 "/>
<path style=" stroke:none;fill-rule:nonzero;fill:rgb(18.431373%,18.039216%,25.490196%);fill-opacity:1;" d="M 278.117188 79.335938 C 277.628906 75.558594 277.121094 71.75 275.976562 68.191406 C 274.832031 64.632812 272.984375 61.300781 270.339844 59.285156 C 266.152344 56.09375 260.726562 56.710938 256.027344 58.546875 C 252.398438 59.964844 248.851562 62.125 246.289062 65.589844 C 243.726562 69.058594 242.289062 74.007812 243.242188 78.542969 C 248.25 77.148438 253.261719 75.75 258.273438 74.351562 L 257.722656 74.808594 C 260.976562 76.644531 263.445312 80.445312 264.183594 84.746094 C 264.925781 89.035156 263.976562 93.445312 261.539062 97.042969 C 264.953125 95.613281 268.371094 94.183594 271.789062 92.75 C 273.898438 91.867188 276.15625 90.847656 277.40625 88.582031 C 278.855469 85.957031 278.519531 82.472656 278.117188 79.335938 Z M 278.117188 79.335938 "/>
<path style=" stroke:none;fill-rule:nonzero;fill:rgb(25.098039%,41.960784%,90.196078%);fill-opacity:1;" d="M 204.554688 103.824219 L 194.53125 118.902344 C 194.046875 119.636719 193.222656 120.078125 192.34375 120.070312 C 191.289062 120.070312 190.335938 119.4375 189.929688 118.460938 C 189.859375 118.300781 189.808594 118.132812 189.773438 117.960938 C 189.636719 117.277344 189.777344 116.566406 190.164062 115.984375 L 200.1875 100.90625 C 200.992188 99.695312 202.621094 99.371094 203.824219 100.175781 C 205.03125 100.980469 205.359375 102.613281 204.554688 103.824219 Z M 204.554688 103.824219 "/>
<path style=" stroke:none;fill-rule:nonzero;fill:rgb(24.705882%,23.921569%,33.72549%);fill-opacity:1;" d="M 195.339844 117.6875 L 193.3125 120.71875 L 189.722656 123.890625 C 189.234375 124.320312 188.523438 124.371094 187.984375 124.011719 C 187.445312 123.648438 187.214844 122.972656 187.421875 122.355469 L 188.996094 117.746094 L 190.972656 114.769531 Z M 195.339844 117.6875 "/>
<path style=" stroke:none;fill-rule:nonzero;fill:rgb(24.705882%,23.921569%,33.72549%);fill-opacity:1;" d="M 204.996094 95.914062 L 199.972656 100.351562 C 199.640625 100.648438 199.464844 101.082031 199.492188 101.523438 C 199.523438 101.96875 199.757812 102.375 200.128906 102.621094 L 201.078125 103.257812 L 198.328125 107.390625 C 198.152344 107.660156 198.222656 108.023438 198.492188 108.203125 C 198.757812 108.378906 199.121094 108.308594 199.300781 108.039062 L 202.046875 103.90625 L 203 104.539062 C 203.65625 104.976562 204.539062 104.800781 204.980469 104.144531 C 205.050781 104.039062 205.105469 103.925781 205.144531 103.808594 L 207.296875 97.449219 C 207.503906 96.835938 207.273438 96.15625 206.734375 95.796875 C 206.195312 95.4375 205.484375 95.484375 204.996094 95.914062 Z M 204.996094 95.914062 "/>
<path style=" stroke:none;fill-rule:nonzero;fill:rgb(24.705882%,23.921569%,33.72549%);fill-opacity:1;" d="M 378.117188 331.480469 L 0.695312 331.480469 C 0.3125 331.476562 0.00390625 331.167969 0.00390625 330.78125 C 0.00390625 330.398438 0.3125 330.089844 0.695312 330.085938 L 378.117188 330.085938 C 378.5 330.089844 378.808594 330.398438 378.808594 330.78125 C 378.808594 331.167969 378.5 331.476562 378.117188 331.480469 Z M 378.117188 331.480469 "/>
<path style=" stroke:none;fill-rule:nonzero;fill:rgb(100%,100%,100%);fill-opacity:1;" d="M 140.996094 12.582031 L 125.253906 12.582031 C 124.609375 12.582031 124.085938 12.058594 124.085938 11.414062 C 124.085938 10.769531 124.609375 10.246094 125.253906 10.246094 L 140.996094 10.246094 C 141.640625 10.246094 142.160156 10.769531 142.160156 11.414062 C 142.160156 12.058594 141.640625 12.582031 140.996094 12.582031 Z M 140.996094 12.582031 "/>
<path style=" stroke:none;fill-rule:nonzero;fill:rgb(100%,100%,100%);fill-opacity:1;" d="M 150.035156 11.414062 C 150.035156 12.058594 149.511719 12.582031 148.867188 12.582031 C 148.222656 12.582031 147.699219 12.058594 147.699219 11.414062 C 147.699219 10.769531 148.222656 10.246094 148.867188 10.246094 C 149.511719 10.246094 150.035156 10.769531 150.035156 11.414062 Z M 150.035156 11.414062 "/>
</g>
</svg>
