<?xml version="1.0" encoding="UTF-8"?>
<svg xmlns="http://www.w3.org/2000/svg" xmlns:xlink="http://www.w3.org/1999/xlink" width="375pt" height="213pt" viewBox="0 0 375 213" version="1.1">
<g id="surface1">
<path style=" stroke:none;fill-rule:nonzero;fill:rgb(100%,100%,100%);fill-opacity:1;" d="M 157.875 0.421875 L 374.667969 0.421875 L 374.667969 141.417969 L 157.875 141.417969 Z M 157.875 0.421875 "/>
<path style=" stroke:none;fill-rule:nonzero;fill:rgb(89.411765%,89.411765%,89.411765%);fill-opacity:1;" d="M 375.089844 141.839844 L 157.453125 141.839844 L 157.453125 0 L 375.089844 0 Z M 158.296875 140.996094 L 374.246094 140.996094 L 374.246094 0.84375 L 158.296875 0.84375 Z M 158.296875 140.996094 "/>
<path style=" stroke:none;fill-rule:nonzero;fill:rgb(24.705882%,23.921569%,33.72549%);fill-opacity:1;" d="M 252.648438 14.210938 C 259.015625 14.320312 259.015625 23.800781 252.648438 23.910156 C 246.28125 23.800781 246.28125 14.320312 252.648438 14.210938 Z M 252.648438 14.210938 "/>
<path style=" stroke:none;fill-rule:nonzero;fill:rgb(25.098039%,41.960784%,90.196078%);fill-opacity:1;" d="M 266.273438 14.210938 C 272.640625 14.320312 272.640625 23.800781 266.273438 23.910156 C 259.90625 23.800781 259.90625 14.320312 266.273438 14.210938 Z M 266.273438 14.210938 "/>
<path style=" stroke:none;fill-rule:nonzero;fill:rgb(79.215686%,79.215686%,79.215686%);fill-opacity:1;" d="M 279.898438 14.210938 C 286.265625 14.320312 286.261719 23.800781 279.894531 23.910156 C 273.527344 23.800781 273.53125 14.320312 279.898438 14.210938 Z M 279.898438 14.210938 "/>
<path style=" stroke:none;fill-rule:nonzero;fill:rgb(79.215686%,79.215686%,79.215686%);fill-opacity:1;" d="M 195.320312 51.34375 L 238.679688 51.34375 L 238.679688 51.867188 L 195.320312 51.867188 Z M 195.320312 51.34375 "/>
<path style=" stroke:none;fill-rule:nonzero;fill:rgb(79.215686%,79.215686%,79.215686%);fill-opacity:1;" d="M 337.484375 127.628906 L 277.835938 127.628906 L 277.835938 71.859375 L 337.484375 71.859375 Z M 278.359375 127.101562 L 336.960938 127.101562 L 336.960938 72.386719 L 278.359375 72.386719 Z M 278.359375 127.101562 "/>
<path style=" stroke:none;fill-rule:nonzero;fill:rgb(79.215686%,79.215686%,79.215686%);fill-opacity:1;" d="M 277.917969 72.316406 L 278.277344 71.929688 L 337.402344 127.171875 L 337.042969 127.554688 Z M 277.917969 72.316406 "/>
<path style=" stroke:none;fill-rule:nonzero;fill:rgb(79.215686%,79.215686%,79.215686%);fill-opacity:1;" d="M 277.917969 127.171875 L 337.042969 71.933594 L 337.402344 72.316406 L 278.273438 127.554688 Z M 277.917969 127.171875 "/>
<path style=" stroke:none;fill-rule:nonzero;fill:rgb(79.215686%,79.215686%,79.215686%);fill-opacity:1;" d="M 337.484375 43.976562 L 195.058594 43.976562 L 195.058594 34.242188 L 337.484375 34.242188 Z M 195.585938 43.449219 L 336.960938 43.449219 L 336.960938 34.769531 L 195.585938 34.769531 Z M 195.585938 43.449219 "/>
<path style=" stroke:none;fill-rule:nonzero;fill:rgb(79.215686%,79.215686%,79.215686%);fill-opacity:1;" d="M 247.738281 87 L 195.480469 87 L 195.480469 77.265625 L 247.738281 77.265625 Z M 196.003906 86.472656 L 247.214844 86.472656 L 247.214844 77.792969 L 196.003906 77.792969 Z M 196.003906 86.472656 "/>
<path style=" stroke:none;fill-rule:nonzero;fill:rgb(79.215686%,79.215686%,79.215686%);fill-opacity:1;" d="M 247.738281 103.449219 L 195.480469 103.449219 L 195.480469 93.714844 L 247.738281 93.714844 Z M 196.003906 102.921875 L 247.214844 102.921875 L 247.214844 94.242188 L 196.003906 94.242188 Z M 196.003906 102.921875 "/>
<path style=" stroke:none;fill-rule:nonzero;fill:rgb(79.215686%,79.215686%,79.215686%);fill-opacity:1;" d="M 247.738281 119.898438 L 195.480469 119.898438 L 195.480469 110.164062 L 247.738281 110.164062 Z M 196.003906 119.371094 L 247.214844 119.371094 L 247.214844 110.691406 L 196.003906 110.691406 Z M 196.003906 119.371094 "/>
<path style=" stroke:none;fill-rule:nonzero;fill:rgb(25.098039%,41.960784%,90.196078%);fill-opacity:1;" d="M 209.164062 63.402344 L 195.148438 63.402344 C 196.230469 59.042969 196.101562 54.328125 195.148438 49.371094 L 209.164062 49.371094 C 207.203125 53.84375 207.203125 58.933594 209.164062 63.402344 Z M 209.164062 63.402344 "/>
<path style=" stroke:none;fill-rule:nonzero;fill:rgb(100%,100%,100%);fill-opacity:1;" d="M 197.273438 52.347656 L 205.769531 52.347656 L 205.769531 54.046875 L 197.273438 54.046875 Z M 197.273438 52.347656 "/>
<path style=" stroke:none;fill-rule:nonzero;fill:rgb(100%,100%,100%);fill-opacity:1;" d="M 197.273438 55.75 L 205.769531 55.75 L 205.769531 57.449219 L 197.273438 57.449219 Z M 197.273438 55.75 "/>
<path style=" stroke:none;fill-rule:nonzero;fill:rgb(100%,100%,100%);fill-opacity:1;" d="M 197.273438 59.152344 L 205.769531 59.152344 L 205.769531 60.851562 L 197.273438 60.851562 Z M 197.273438 59.152344 "/>
<path style=" stroke:none;fill-rule:nonzero;fill:rgb(25.098039%,41.960784%,90.196078%);fill-opacity:1;" d="M 314.714844 84.589844 L 300.699219 84.589844 C 301.78125 80.234375 301.652344 75.515625 300.699219 70.5625 L 314.714844 70.5625 C 312.753906 75.03125 312.753906 80.121094 314.714844 84.589844 Z M 314.714844 84.589844 "/>
<path style=" stroke:none;fill-rule:nonzero;fill:rgb(100%,100%,100%);fill-opacity:1;" d="M 302.824219 73.535156 L 311.320312 73.535156 L 311.320312 75.238281 L 302.824219 75.238281 Z M 302.824219 73.535156 "/>
<path style=" stroke:none;fill-rule:nonzero;fill:rgb(100%,100%,100%);fill-opacity:1;" d="M 302.824219 76.9375 L 311.320312 76.9375 L 311.320312 78.640625 L 302.824219 78.640625 Z M 302.824219 76.9375 "/>
<path style=" stroke:none;fill-rule:nonzero;fill:rgb(100%,100%,100%);fill-opacity:1;" d="M 302.824219 80.339844 L 311.320312 80.339844 L 311.320312 82.039062 L 302.824219 82.039062 Z M 302.824219 80.339844 "/>
<path style=" stroke:none;fill-rule:nonzero;fill:rgb(25.098039%,41.960784%,90.196078%);fill-opacity:1;" d="M 332.738281 54.527344 L 318.722656 54.527344 C 319.804688 50.167969 319.671875 45.453125 318.722656 40.496094 L 332.738281 40.496094 C 330.773438 44.964844 330.773438 50.054688 332.738281 54.527344 Z M 332.738281 54.527344 "/>
<path style=" stroke:none;fill-rule:nonzero;fill:rgb(100%,100%,100%);fill-opacity:1;" d="M 320.84375 43.472656 L 329.339844 43.472656 L 329.339844 45.171875 L 320.84375 45.171875 Z M 320.84375 43.472656 "/>
<path style=" stroke:none;fill-rule:nonzero;fill:rgb(100%,100%,100%);fill-opacity:1;" d="M 320.84375 46.871094 L 329.339844 46.871094 L 329.339844 48.574219 L 320.84375 48.574219 Z M 320.84375 46.871094 "/>
<path style=" stroke:none;fill-rule:nonzero;fill:rgb(100%,100%,100%);fill-opacity:1;" d="M 320.84375 50.273438 L 329.339844 50.273438 L 329.339844 51.976562 L 320.84375 51.976562 Z M 320.84375 50.273438 "/>
<path style=" stroke:none;fill-rule:nonzero;fill:rgb(18.431373%,18.039216%,25.490196%);fill-opacity:1;" d="M 87.050781 64.722656 L 63.03125 64.722656 L 63.03125 51.855469 C 63.03125 45.21875 68.410156 39.835938 75.042969 39.835938 C 81.671875 39.835938 87.050781 45.21875 87.050781 51.855469 Z M 87.050781 64.722656 "/>
<path style=" stroke:none;fill-rule:nonzero;fill:rgb(100%,71.372549%,71.372549%);fill-opacity:1;" d="M 97.769531 207.851562 L 102.9375 207.851562 L 105.394531 187.90625 L 97.769531 187.90625 Z M 97.769531 207.851562 "/>
<path style=" stroke:none;fill-rule:nonzero;fill:rgb(18.431373%,18.039216%,25.490196%);fill-opacity:1;" d="M 96.453125 206.164062 L 106.625 206.164062 C 110.207031 206.164062 113.109375 209.066406 113.109375 212.652344 L 113.109375 212.863281 L 96.453125 212.863281 Z M 96.453125 206.164062 "/>
<path style=" stroke:none;fill-rule:nonzero;fill:rgb(100%,71.372549%,71.372549%);fill-opacity:1;" d="M 36.019531 200.949219 L 40.519531 203.492188 L 52.453125 187.332031 L 45.816406 183.582031 Z M 36.019531 200.949219 "/>
<path style=" stroke:none;fill-rule:nonzero;fill:rgb(18.431373%,18.039216%,25.490196%);fill-opacity:1;" d="M 35.703125 198.832031 L 44.5625 203.835938 L 44.5625 203.839844 C 47.679688 205.601562 48.78125 209.558594 47.019531 212.679688 L 46.917969 212.863281 L 32.410156 204.667969 Z M 35.703125 198.832031 "/>
<path style=" stroke:none;fill-rule:nonzero;fill:rgb(18.431373%,18.039216%,25.490196%);fill-opacity:1;" d="M 69.035156 118.148438 L 68.636719 120.144531 C 68.636719 120.144531 67.441406 121.34375 68.039062 121.941406 C 68.636719 122.539062 68.4375 125.332031 68.4375 125.332031 C 68.101562 130.425781 61.453125 159.046875 60.265625 164.636719 C 60.265625 164.636719 51.097656 170.625 43.921875 182.394531 C 36.746094 194.167969 36.546875 197.160156 36.546875 197.160156 L 44.519531 200.550781 L 64.449219 176.410156 C 64.449219 176.410156 70.03125 173.019531 72.023438 170.023438 C 74.019531 167.03125 86.375 136.105469 86.375 136.105469 L 93.351562 168.429688 C 93.351562 168.429688 92.953125 180.199219 94.746094 187.78125 C 95.847656 192.566406 96.515625 197.441406 96.738281 202.347656 L 106.109375 201.351562 C 106.109375 201.351562 105.507812 173.019531 104.511719 170.023438 C 104.511719 170.023438 108.699219 135.507812 100.328125 121.742188 L 93.582031 103.738281 L 86.972656 101.191406 Z M 69.035156 118.148438 "/>
<path style=" stroke:none;fill-rule:nonzero;fill:rgb(100%,72.156863%,72.156863%);fill-opacity:1;" d="M 74.917969 42.980469 C 87.496094 43.195312 87.492188 61.921875 74.917969 62.136719 C 62.34375 61.921875 62.34375 43.195312 74.917969 42.980469 Z M 74.917969 42.980469 "/>
<path style=" stroke:none;fill-rule:nonzero;fill:rgb(18.431373%,18.039216%,25.490196%);fill-opacity:1;" d="M 84.597656 52.0625 L 82.460938 52.0625 L 81.878906 50.605469 L 82.167969 52.0625 L 70.476562 52.0625 L 70.859375 49.011719 L 68.015625 52.0625 L 65.183594 52.0625 L 65.183594 50.410156 C 65.175781 46.933594 67.023438 43.71875 70.03125 41.980469 C 73.035156 40.238281 76.742188 40.238281 79.746094 41.980469 C 82.753906 43.71875 84.601562 46.933594 84.597656 50.410156 Z M 84.597656 52.0625 "/>
<path style=" stroke:none;fill-rule:nonzero;fill:rgb(89.411765%,89.411765%,89.411765%);fill-opacity:1;" d="M 87.886719 67.730469 L 64.121094 67.921875 L 69.144531 118.921875 C 69.144531 118.921875 96.933594 117.453125 96.953125 108.960938 L 94.347656 101.414062 Z M 87.886719 67.730469 "/>
<path style=" stroke:none;fill-rule:nonzero;fill:rgb(100%,100%,100%);fill-opacity:1;" d="M 132.113281 156.71875 L 49.269531 173.890625 C 48.421875 174.066406 47.445312 172.800781 47.085938 171.066406 L 38.375 128.976562 C 38.019531 127.238281 38.414062 125.691406 39.261719 125.515625 L 122.105469 108.339844 C 122.953125 108.167969 123.929688 109.429688 124.292969 111.164062 L 133 153.257812 C 133.355469 154.992188 132.960938 156.539062 132.113281 156.71875 Z M 132.113281 156.71875 "/>
<path style=" stroke:none;fill-rule:nonzero;fill:rgb(94.117647%,94.117647%,94.117647%);fill-opacity:1;" d="M 76.75 136.65625 C 76.75 140.746094 73.4375 144.0625 69.351562 144.0625 C 65.265625 144.0625 61.953125 140.746094 61.953125 136.65625 C 61.953125 132.566406 65.265625 129.25 69.351562 129.25 C 73.4375 129.25 76.75 132.566406 76.75 136.65625 Z M 76.75 136.65625 "/>
<path style=" stroke:none;fill-rule:nonzero;fill:rgb(89.411765%,89.411765%,89.411765%);fill-opacity:1;" d="M 96.691406 154.292969 L 61.152344 161.660156 C 61.109375 161.671875 61.066406 161.675781 61.019531 161.679688 L 71.800781 129.050781 C 71.929688 128.636719 72.273438 128.328125 72.699219 128.238281 C 73.125 128.152344 73.5625 128.300781 73.847656 128.625 L 89.175781 145.84375 L 89.90625 146.667969 Z M 96.691406 154.292969 "/>
<path style=" stroke:none;fill-rule:nonzero;fill:rgb(89.411765%,89.411765%,89.411765%);fill-opacity:1;" d="M 116.480469 150.191406 L 85.742188 156.566406 L 89.90625 146.667969 L 90.207031 145.957031 L 95.632812 133.0625 C 95.835938 132.65625 96.207031 132.355469 96.644531 132.234375 C 97.085938 132.117188 97.554688 132.191406 97.9375 132.4375 C 97.984375 132.472656 98.03125 132.511719 98.078125 132.554688 Z M 116.480469 150.191406 "/>
<path style=" stroke:none;fill-rule:nonzero;fill:rgb(79.215686%,79.215686%,79.215686%);fill-opacity:1;" d="M 132.113281 156.71875 L 49.269531 173.890625 C 48.421875 174.066406 47.445312 172.800781 47.085938 171.066406 L 38.375 128.976562 C 38.019531 127.238281 38.414062 125.691406 39.261719 125.515625 L 122.105469 108.339844 C 122.953125 108.167969 123.929688 109.429688 124.292969 111.164062 L 133 153.257812 C 133.355469 154.992188 132.960938 156.539062 132.113281 156.71875 Z M 39.519531 126.769531 C 39.011719 126.875 38.777344 127.804688 38.992188 128.847656 L 47.699219 170.9375 C 47.914062 171.980469 48.5 172.738281 49.007812 172.632812 L 131.855469 155.460938 C 132.363281 155.355469 132.601562 154.425781 132.386719 153.382812 L 123.679688 111.292969 C 123.460938 110.25 122.875 109.492188 122.367188 109.597656 Z M 39.519531 126.769531 "/>
<path style=" stroke:none;fill-rule:nonzero;fill:rgb(100%,71.372549%,71.372549%);fill-opacity:1;" d="M 107.605469 117.757812 C 106.546875 117.261719 105.761719 116.320312 105.460938 115.1875 C 105.164062 114.054688 105.382812 112.851562 106.054688 111.894531 L 101.242188 104.246094 L 105.171875 100.1875 L 111.816406 111.082031 C 113.378906 112.351562 113.75 114.589844 112.671875 116.292969 C 111.597656 117.996094 109.421875 118.625 107.605469 117.757812 Z M 107.605469 117.757812 "/>
<path style=" stroke:none;fill-rule:nonzero;fill:rgb(89.411765%,89.411765%,89.411765%);fill-opacity:1;" d="M 84.234375 69.738281 L 87.683594 67.464844 C 87.683594 67.464844 90.34375 68.058594 93.171875 73.507812 C 96.003906 78.957031 107.414062 103.316406 107.414062 103.316406 L 102.722656 108.085938 L 90.210938 88.972656 Z M 84.234375 69.738281 "/>
<path style=" stroke:none;fill-rule:nonzero;fill:rgb(100%,71.372549%,71.372549%);fill-opacity:1;" d="M 63.101562 123.851562 C 63.839844 122.945312 64.140625 121.757812 63.921875 120.605469 C 63.703125 119.457031 62.984375 118.464844 61.960938 117.894531 L 62.996094 108.917969 L 57.699219 106.957031 L 56.417969 119.65625 C 55.558594 121.480469 56.195312 123.65625 57.898438 124.726562 C 59.605469 125.796875 61.839844 125.421875 63.101562 123.851562 Z M 63.101562 123.851562 "/>
<path style=" stroke:none;fill-rule:nonzero;fill:rgb(89.411765%,89.411765%,89.411765%);fill-opacity:1;" d="M 67.246094 72.3125 L 64.121094 67.9375 C 64.121094 67.9375 61.980469 67.464844 59.453125 70.414062 C 56.921875 73.367188 55.449219 110.273438 55.449219 110.273438 L 64.71875 112.382812 L 70.195312 86.234375 Z M 67.246094 72.3125 "/>
<path style=" stroke:none;fill-rule:nonzero;fill:rgb(79.215686%,79.215686%,79.215686%);fill-opacity:1;" d="M 160.953125 212.976562 L 0.421875 212.976562 C 0.1875 212.976562 0 212.789062 0 212.554688 C 0 212.324219 0.1875 212.132812 0.421875 212.132812 L 160.953125 212.132812 C 161.1875 212.132812 161.375 212.324219 161.375 212.554688 C 161.375 212.789062 161.1875 212.976562 160.953125 212.976562 Z M 160.953125 212.976562 "/>
<path style=" stroke:none;fill-rule:nonzero;fill:rgb(25.098039%,41.960784%,90.196078%);fill-opacity:1;" d="M 57.664062 136.65625 L 43.953125 139.570312 C 44.105469 135.082031 43 130.496094 41.042969 125.847656 L 54.753906 122.933594 C 53.761719 127.714844 54.816406 132.691406 57.664062 136.65625 Z M 57.664062 136.65625 "/>
<path style=" stroke:none;fill-rule:nonzero;fill:rgb(100%,100%,100%);fill-opacity:1;" d="M 43.738281 128.316406 L 52.046875 126.550781 L 52.398438 128.214844 L 44.089844 129.980469 Z M 43.738281 128.316406 "/>
<path style=" stroke:none;fill-rule:nonzero;fill:rgb(100%,100%,100%);fill-opacity:1;" d="M 44.441406 131.644531 L 52.75 129.878906 L 53.105469 131.542969 L 44.796875 133.308594 Z M 44.441406 131.644531 "/>
<path style=" stroke:none;fill-rule:nonzero;fill:rgb(100%,100%,100%);fill-opacity:1;" d="M 45.148438 134.972656 L 53.457031 133.203125 L 53.808594 134.867188 L 45.5 136.632812 Z M 45.148438 134.972656 "/>
</g>
</svg>
