<?xml version="1.0" encoding="UTF-8"?>
<svg xmlns="http://www.w3.org/2000/svg" xmlns:xlink="http://www.w3.org/1999/xlink" width="349pt" height="271pt" viewBox="0 0 349 271" version="1.1">
<g id="surface1">
<path style=" stroke:none;fill-rule:nonzero;fill:rgb(100%,72.156863%,72.156863%);fill-opacity:1;" d="M 173.171875 267.269531 L 169.457031 267.269531 L 167.691406 252.910156 L 173.171875 252.910156 Z M 173.171875 267.269531 "/>
<path style=" stroke:none;fill-rule:nonzero;fill:rgb(18.431373%,18.039216%,25.490196%);fill-opacity:1;" d="M 174.117188 270.878906 L 162.140625 270.875 L 162.140625 270.726562 C 162.140625 268.144531 164.230469 266.050781 166.804688 266.054688 L 174.121094 266.054688 Z M 174.117188 270.878906 "/>
<path style=" stroke:none;fill-rule:nonzero;fill:rgb(100%,72.156863%,72.156863%);fill-opacity:1;" d="M 214.664062 263.785156 L 211.164062 265.027344 L 204.714844 252.082031 L 209.882812 250.25 Z M 214.664062 263.785156 "/>
<path style=" stroke:none;fill-rule:nonzero;fill:rgb(18.431373%,18.039216%,25.490196%);fill-opacity:1;" d="M 216.761719 266.871094 L 205.472656 270.878906 L 205.421875 270.734375 C 204.5625 268.300781 205.832031 265.632812 208.257812 264.769531 L 215.152344 262.324219 Z M 216.761719 266.871094 "/>
<path style=" stroke:none;fill-rule:nonzero;fill:rgb(18.431373%,18.039216%,25.490196%);fill-opacity:1;" d="M 173.066406 262.445312 C 172.984375 262.445312 172.902344 262.441406 172.820312 262.425781 L 168.277344 261.597656 C 167.640625 261.480469 167.171875 260.929688 167.15625 260.28125 C 166.496094 229.636719 169.742188 209.042969 176.804688 194.28125 C 177.0625 193.746094 177.640625 193.441406 178.226562 193.53125 L 194.558594 195.894531 C 195.171875 195.984375 195.648438 196.476562 195.71875 197.089844 L 197.160156 209.816406 C 197.167969 209.886719 197.183594 209.953125 197.203125 210.019531 L 212.863281 257.046875 C 213.085938 257.757812 212.699219 258.515625 211.996094 258.757812 L 207.761719 260.171875 C 207.121094 260.382812 206.417969 260.089844 206.113281 259.484375 L 184.929688 219.449219 C 184.84375 219.277344 184.65625 219.179688 184.464844 219.203125 C 184.277344 219.226562 184.121094 219.367188 184.078125 219.558594 L 174.394531 261.371094 C 174.261719 262 173.707031 262.445312 173.066406 262.445312 Z M 173.066406 262.445312 "/>
<path style=" stroke:none;fill-rule:nonzero;fill:rgb(100%,72.156863%,72.156863%);fill-opacity:1;" d="M 160.160156 169.464844 C 160.195312 169.628906 160.222656 169.796875 160.230469 169.960938 L 173.246094 177.488281 L 176.410156 175.664062 L 179.78125 180.089844 L 174.496094 183.863281 C 173.617188 184.492188 172.433594 184.460938 171.585938 183.792969 L 158.167969 173.183594 C 156.925781 173.640625 155.53125 173.285156 154.664062 172.285156 C 153.796875 171.285156 153.636719 169.851562 154.261719 168.683594 C 154.886719 167.515625 156.167969 166.859375 157.480469 167.03125 C 158.789062 167.207031 159.855469 168.175781 160.160156 169.464844 Z M 160.160156 169.464844 "/>
<path style=" stroke:none;fill-rule:nonzero;fill:rgb(25.098039%,41.960784%,90.196078%);fill-opacity:1;" d="M 173.425781 176.734375 C 173.503906 176.347656 173.75 176.011719 174.09375 175.816406 L 180.066406 172.46875 C 181.71875 171.191406 184.09375 171.496094 185.371094 173.148438 C 186.652344 174.800781 186.355469 177.179688 184.710938 178.464844 L 179.949219 183.421875 C 179.675781 183.707031 179.289062 183.859375 178.894531 183.839844 C 178.496094 183.816406 178.128906 183.625 177.886719 183.308594 L 173.683594 177.84375 C 173.441406 177.53125 173.347656 177.125 173.425781 176.734375 Z M 173.425781 176.734375 "/>
<path style=" stroke:none;fill-rule:nonzero;fill:rgb(100%,72.156863%,72.156863%);fill-opacity:1;" d="M 194.773438 161.257812 C 194.773438 165.375 191.445312 168.714844 187.332031 168.714844 C 183.222656 168.714844 179.890625 165.375 179.890625 161.257812 C 179.890625 157.136719 183.222656 153.796875 187.332031 153.796875 C 191.445312 153.796875 194.773438 157.136719 194.773438 161.257812 Z M 194.773438 161.257812 "/>
<path style=" stroke:none;fill-rule:nonzero;fill:rgb(25.098039%,41.960784%,90.196078%);fill-opacity:1;" d="M 194.578125 197.484375 C 194.507812 197.484375 194.433594 197.476562 194.359375 197.464844 L 178.253906 194.820312 C 177.886719 194.757812 177.5625 194.550781 177.351562 194.242188 C 177.140625 193.933594 177.066406 193.554688 177.140625 193.1875 L 177.925781 189.484375 C 177.523438 188.886719 174.257812 183.671875 178.234375 178.773438 C 178.078125 175.15625 180.824219 172.070312 184.425781 171.8125 L 192.75 171.179688 C 194.921875 171.015625 197.039062 171.917969 198.425781 173.601562 C 199.8125 175.285156 200.296875 177.539062 199.722656 179.648438 L 195.910156 196.421875 C 195.765625 197.042969 195.214844 197.484375 194.578125 197.484375 Z M 194.578125 197.484375 "/>
<path style=" stroke:none;fill-rule:nonzero;fill:rgb(100%,72.156863%,72.156863%);fill-opacity:1;" d="M 209.617188 211.511719 C 210.171875 210.71875 210.347656 209.722656 210.097656 208.792969 C 209.847656 207.859375 209.199219 207.085938 208.324219 206.679688 L 199.15625 178.425781 L 193.84375 180.953125 L 203.875 208.460938 C 203.277344 210.011719 203.929688 211.765625 205.394531 212.542969 C 206.859375 213.320312 208.675781 212.878906 209.617188 211.511719 Z M 209.617188 211.511719 "/>
<path style=" stroke:none;fill-rule:nonzero;fill:rgb(25.098039%,41.960784%,90.196078%);fill-opacity:1;" d="M 201.183594 183.128906 L 194.128906 185.265625 C 193.722656 185.386719 193.28125 185.328125 192.921875 185.097656 C 192.566406 184.871094 192.324219 184.5 192.261719 184.078125 L 191.191406 176.792969 C 190.558594 174.644531 191.777344 172.390625 193.917969 171.75 C 196.058594 171.109375 198.3125 172.324219 198.957031 174.464844 L 202.082031 181.105469 C 202.261719 181.488281 202.265625 181.933594 202.09375 182.324219 C 201.921875 182.710938 201.589844 183.003906 201.183594 183.128906 Z M 201.183594 183.128906 "/>
<path style=" stroke:none;fill-rule:nonzero;fill:rgb(0%,0%,0%);fill-opacity:1;" d="M 180.101562 161.542969 C 183.472656 162.832031 187.289062 162.03125 189.859375 159.492188 C 189.078125 161.558594 189.296875 170.324219 189.296875 170.324219 C 189.296875 170.324219 196.21875 167.03125 197.160156 166.453125 C 202.703125 163.050781 195.054688 148.25 188.691406 150.585938 C 187.613281 150.980469 186.714844 151.445312 186.277344 152.507812 C 185.328125 151.335938 183.527344 151.078125 182.144531 151.683594 C 180.761719 152.285156 179.777344 153.59375 179.25 155.011719 C 178.402344 157.324219 178.625 159.894531 179.851562 162.03125 Z M 180.101562 161.542969 "/>
<path style=" stroke:none;fill-rule:nonzero;fill:rgb(94.901961%,94.901961%,94.901961%);fill-opacity:1;" d="M 348.867188 88.742188 C 348.867188 39.730469 317.328125 0 278.421875 0 C 239.515625 0 207.972656 39.730469 207.972656 88.742188 C 207.972656 137.753906 239.515625 177.484375 278.421875 177.484375 C 317.328125 177.484375 348.867188 137.753906 348.867188 88.742188 Z M 348.867188 88.742188 "/>
<path style=" stroke:none;fill-rule:nonzero;fill:rgb(90.196078%,90.196078%,90.196078%);fill-opacity:1;" d="M 330.824219 29.46875 C 346.117188 74.539062 329.515625 126.691406 293.734375 145.960938 C 265.902344 160.949219 233.574219 151.863281 213.4375 123.390625 C 228.730469 168.460938 270.132812 189.378906 305.910156 170.113281 C 341.691406 150.851562 358.296875 98.695312 343.003906 53.625 C 340.125 45.027344 336.023438 36.890625 330.824219 29.46875 Z M 330.824219 29.46875 "/>
<path style=" stroke:none;fill-rule:nonzero;fill:rgb(80%,80%,80%);fill-opacity:1;" d="M 278.613281 70.605469 L 278.808594 70.605469 L 282.292969 270.789062 L 274.9375 270.789062 Z M 278.613281 70.605469 "/>
<path style=" stroke:none;fill-rule:nonzero;fill:rgb(80%,80%,80%);fill-opacity:1;" d="M 278.171875 208.167969 L 289.820312 202.023438 L 291.441406 205.113281 L 279.796875 211.257812 Z M 278.171875 208.167969 "/>
<path style=" stroke:none;fill-rule:nonzero;fill:rgb(94.901961%,94.901961%,94.901961%);fill-opacity:1;" d="M 108.800781 129.929688 C 108.800781 92.238281 84.445312 61.679688 54.398438 61.679688 C 24.355469 61.679688 0 92.238281 0 129.929688 C 0 167.621094 24.355469 198.175781 54.398438 198.175781 C 84.445312 198.175781 108.800781 167.621094 108.800781 129.929688 Z M 108.800781 129.929688 "/>
<path style=" stroke:none;fill-rule:nonzero;fill:rgb(90.196078%,90.196078%,90.196078%);fill-opacity:1;" d="M 94.867188 84.34375 C 106.675781 119.003906 93.855469 159.113281 66.226562 173.933594 C 44.730469 185.460938 19.769531 178.472656 4.21875 156.574219 C 16.03125 191.238281 48 207.324219 75.628906 192.511719 C 103.257812 177.695312 116.082031 137.585938 104.273438 102.921875 C 102.046875 96.308594 98.878906 90.050781 94.867188 84.34375 Z M 94.867188 84.34375 "/>
<path style=" stroke:none;fill-rule:nonzero;fill:rgb(80%,80%,80%);fill-opacity:1;" d="M 54.550781 116.207031 L 54.699219 116.207031 L 57.390625 270.789062 L 51.710938 270.789062 Z M 54.550781 116.207031 "/>
<path style=" stroke:none;fill-rule:nonzero;fill:rgb(80%,80%,80%);fill-opacity:1;" d="M 54.210938 224.652344 L 63.203125 219.90625 L 64.453125 222.292969 L 55.460938 227.039062 Z M 54.210938 224.652344 "/>
<path style=" stroke:none;fill-rule:nonzero;fill:rgb(80%,80%,80%);fill-opacity:1;" d="M 318.527344 271 L 8.832031 271 C 8.613281 271 8.4375 270.820312 8.4375 270.601562 C 8.4375 270.382812 8.613281 270.203125 8.832031 270.203125 L 318.527344 270.203125 C 318.746094 270.203125 318.921875 270.382812 318.921875 270.601562 C 318.921875 270.820312 318.746094 271 318.527344 271 Z M 318.527344 271 "/>
<path style=" stroke:none;fill-rule:evenodd;fill:rgb(24.705882%,23.921569%,33.72549%);fill-opacity:1;" d="M 170.414062 69.085938 C 170.414062 65.203125 167.382812 62.003906 163.515625 61.800781 C 159.648438 61.597656 156.300781 64.464844 155.898438 68.324219 C 155.492188 72.183594 158.175781 75.683594 162 76.289062 L 162 71.195312 L 160.148438 71.195312 L 160.148438 69.085938 L 162 69.085938 L 162 67.476562 C 162 65.648438 163.085938 64.636719 164.746094 64.636719 C 165.292969 64.644531 165.835938 64.695312 166.375 64.78125 L 166.375 66.578125 L 165.457031 66.578125 C 165.140625 66.535156 164.824219 66.640625 164.59375 66.859375 C 164.359375 67.082031 164.242188 67.398438 164.273438 67.714844 L 164.273438 69.085938 L 166.289062 69.085938 L 165.96875 71.195312 L 164.273438 71.195312 L 164.273438 76.292969 C 167.808594 75.730469 170.414062 72.671875 170.414062 69.085938 Z M 170.414062 69.085938 "/>
<path style=" stroke:none;fill-rule:nonzero;fill:rgb(24.705882%,23.921569%,33.72549%);fill-opacity:1;" d="M 136.757812 90.753906 L 138.082031 90.488281 C 137.675781 90.964844 137.230469 91.410156 136.757812 91.816406 C 136.738281 92.082031 136.738281 92.347656 136.757812 92.613281 C 134.210938 103.558594 124.828125 98.726562 124.828125 98.726562 C 128.25 98.804688 128.539062 97.394531 128.539062 97.394531 C 126.550781 97.105469 126.152344 95.800781 126.152344 95.800781 C 126.523438 95.996094 126.980469 95.882812 127.214844 95.535156 C 126.007812 95.261719 125.203125 94.113281 125.359375 92.878906 C 125.742188 93.15625 126.1875 93.332031 126.65625 93.382812 C 126.417969 93.09375 124.40625 90.675781 125.625 89.425781 C 125.625 89.425781 127.109375 92.082031 131.003906 92.320312 L 131.269531 92.269531 C 131.226562 92.078125 131.207031 91.878906 131.21875 91.683594 C 131.21875 90.144531 132.464844 88.894531 134 88.894531 C 135.855469 88.894531 136.253906 89.957031 136.253906 89.957031 L 137.578125 89.160156 C 137.550781 89.160156 137.421875 90.488281 136.757812 90.753906 Z M 136.757812 90.753906 "/>
<path style=" stroke:none;fill-rule:nonzero;fill:rgb(24.705882%,23.921569%,33.72549%);fill-opacity:1;" d="M 169.433594 108.472656 L 163.835938 108.472656 C 161.675781 108.476562 159.925781 110.230469 159.917969 112.398438 L 159.917969 118.007812 C 159.925781 120.171875 161.675781 121.929688 163.835938 121.933594 L 169.433594 121.933594 C 171.59375 121.929688 173.34375 120.171875 173.351562 118.007812 L 173.351562 112.398438 C 173.34375 110.230469 171.59375 108.476562 169.433594 108.472656 Z M 169.433594 108.472656 "/>
<path style=" stroke:none;fill-rule:nonzero;fill:rgb(100%,100%,100%);fill-opacity:1;" d="M 170.273438 112.398438 C 169.8125 112.398438 169.4375 112.019531 169.4375 111.558594 C 169.4375 111.09375 169.8125 110.71875 170.273438 110.71875 C 170.738281 110.71875 171.113281 111.09375 171.113281 111.558594 C 171.113281 112.019531 170.738281 112.398438 170.277344 112.398438 Z M 170.273438 112.398438 "/>
<path style=" stroke:none;fill-rule:nonzero;fill:rgb(100%,100%,100%);fill-opacity:1;" d="M 166.636719 112.957031 C 167.871094 112.957031 168.875 113.964844 168.875 115.203125 C 168.875 116.441406 167.871094 117.445312 166.636719 117.445312 C 165.398438 117.445312 164.394531 116.441406 164.394531 115.203125 C 164.394531 113.964844 165.398438 112.957031 166.636719 112.957031 M 166.636719 111.835938 C 164.78125 111.835938 163.277344 113.34375 163.277344 115.203125 C 163.277344 117.0625 164.78125 118.570312 166.636719 118.570312 C 168.488281 118.570312 169.992188 117.0625 169.992188 115.203125 C 169.992188 113.34375 168.488281 111.835938 166.636719 111.835938 Z M 166.636719 111.835938 "/>
<path style=" stroke:none;fill-rule:nonzero;fill:rgb(24.705882%,23.921569%,33.72549%);fill-opacity:1;" d="M 147.902344 141.695312 C 144.445312 141.695312 141.464844 144.125 140.757812 147.515625 C 140.046875 150.902344 141.808594 154.328125 144.972656 155.714844 C 144.941406 155.152344 144.984375 154.589844 145.097656 154.039062 C 145.238281 153.441406 146.039062 150.050781 146.039062 150.050781 C 145.878906 149.683594 145.796875 149.289062 145.800781 148.890625 C 145.800781 147.808594 146.429688 146.996094 147.210938 146.996094 C 147.492188 146.992188 147.761719 147.113281 147.953125 147.324219 C 148.140625 147.53125 148.230469 147.816406 148.195312 148.09375 C 148.195312 148.765625 147.769531 149.765625 147.550781 150.691406 C 147.460938 151.042969 147.542969 151.410156 147.769531 151.6875 C 148 151.964844 148.34375 152.121094 148.703125 152.101562 C 150.085938 152.101562 151.015625 150.320312 151.015625 148.210938 C 151.015625 146.605469 149.9375 145.40625 147.980469 145.40625 C 147.03125 145.371094 146.109375 145.722656 145.433594 146.386719 C 144.753906 147.050781 144.375 147.960938 144.386719 148.914062 C 144.363281 149.433594 144.535156 149.945312 144.867188 150.347656 C 144.988281 150.445312 145.027344 150.609375 144.972656 150.753906 C 144.9375 150.886719 144.855469 151.210938 144.820312 151.34375 C 144.808594 151.421875 144.757812 151.492188 144.6875 151.527344 C 144.613281 151.5625 144.527344 151.5625 144.457031 151.527344 C 143.4375 151.105469 142.960938 149.988281 142.960938 148.730469 C 142.960938 146.652344 144.710938 144.160156 148.179688 144.160156 C 150.964844 144.160156 152.800781 146.179688 152.800781 148.351562 C 152.800781 151.222656 151.207031 153.363281 148.859375 153.363281 C 148.148438 153.382812 147.480469 153.039062 147.078125 152.453125 C 147.078125 152.453125 146.652344 154.140625 146.5625 154.464844 C 146.394531 155.019531 146.144531 155.546875 145.828125 156.035156 C 148.570312 156.84375 151.535156 155.976562 153.410156 153.8125 C 155.285156 151.652344 155.726562 148.589844 154.542969 145.980469 C 153.355469 143.371094 150.761719 141.699219 147.902344 141.695312 Z M 147.902344 141.695312 "/>
<path style=" stroke:none;fill-rule:nonzero;fill:rgb(24.705882%,23.921569%,33.72549%);fill-opacity:1;" d="M 163.136719 82.171875 C 155.898438 82.171875 150.03125 76.292969 150.03125 69.042969 C 150.03125 61.789062 155.898438 55.910156 163.136719 55.910156 C 170.371094 55.910156 176.238281 61.789062 176.238281 69.042969 C 176.230469 76.289062 170.367188 82.164062 163.136719 82.171875 Z M 163.136719 56.703125 C 156.335938 56.703125 150.828125 62.226562 150.828125 69.042969 C 150.828125 75.855469 156.335938 81.378906 163.136719 81.378906 C 169.933594 81.378906 175.445312 75.855469 175.445312 69.042969 C 175.4375 62.230469 169.929688 56.710938 163.136719 56.703125 Z M 163.136719 56.703125 "/>
<path style=" stroke:none;fill-rule:nonzero;fill:rgb(24.705882%,23.921569%,33.72549%);fill-opacity:1;" d="M 131.457031 107.472656 C 124.21875 107.472656 118.351562 101.59375 118.351562 94.339844 C 118.351562 87.089844 124.21875 81.210938 131.457031 81.210938 C 138.691406 81.210938 144.558594 87.089844 144.558594 94.339844 C 144.550781 101.589844 138.6875 107.464844 131.457031 107.472656 Z M 131.457031 82.003906 C 124.65625 82.003906 119.148438 87.527344 119.148438 94.339844 C 119.148438 101.15625 124.65625 106.679688 131.457031 106.679688 C 138.253906 106.679688 143.765625 101.15625 143.765625 94.339844 C 143.757812 87.53125 138.25 82.011719 131.457031 82.003906 Z M 131.457031 82.003906 "/>
<path style=" stroke:none;fill-rule:nonzero;fill:rgb(24.705882%,23.921569%,33.72549%);fill-opacity:1;" d="M 166.636719 128.335938 C 159.398438 128.335938 153.53125 122.457031 153.53125 115.203125 C 153.53125 107.949219 159.398438 102.070312 166.636719 102.070312 C 173.871094 102.070312 179.738281 107.949219 179.738281 115.203125 C 179.730469 122.453125 173.867188 128.328125 166.636719 128.335938 Z M 166.636719 102.867188 C 159.835938 102.867188 154.328125 108.390625 154.328125 115.203125 C 154.328125 122.015625 159.835938 127.539062 166.636719 127.539062 C 173.433594 127.539062 178.945312 122.015625 178.945312 115.203125 C 178.9375 108.394531 173.429688 102.875 166.636719 102.867188 Z M 166.636719 102.867188 "/>
<path style=" stroke:none;fill-rule:nonzero;fill:rgb(24.705882%,23.921569%,33.72549%);fill-opacity:1;" d="M 147.902344 162.148438 C 140.664062 162.148438 134.796875 156.269531 134.796875 149.015625 C 134.796875 141.761719 140.664062 135.882812 147.902344 135.882812 C 155.136719 135.882812 161.003906 141.761719 161.003906 149.015625 C 160.996094 156.265625 155.132812 162.140625 147.902344 162.148438 Z M 147.902344 136.679688 C 141.101562 136.679688 135.59375 142.203125 135.59375 149.015625 C 135.59375 155.828125 141.101562 161.351562 147.902344 161.351562 C 154.699219 161.351562 160.210938 155.828125 160.210938 149.015625 C 160.203125 142.207031 154.695312 136.6875 147.902344 136.679688 Z M 147.902344 136.679688 "/>
</g>
</svg>
