<?xml version="1.0" encoding="UTF-8"?>
<svg xmlns="http://www.w3.org/2000/svg" xmlns:xlink="http://www.w3.org/1999/xlink" width="370pt" height="314pt" viewBox="0 0 370 314" version="1.1">
<g id="surface1">
<path style=" stroke:none;fill-rule:nonzero;fill:rgb(90.196078%,90.196078%,90.196078%);fill-opacity:1;" d="M 369.921875 304.632812 C 370.03125 316.875 295.445312 317.996094 294.023438 304.632812 C 293.910156 292.390625 368.5 291.269531 369.921875 304.632812 Z M 369.921875 304.632812 "/>
<path style=" stroke:none;fill-rule:nonzero;fill:rgb(62.352941%,38.039216%,41.568627%);fill-opacity:1;" d="M 311.5625 262.132812 L 306.019531 265.257812 L 309.546875 277.25 L 315.089844 277.769531 L 318.113281 270.992188 Z M 311.5625 262.132812 "/>
<path style=" stroke:none;fill-rule:nonzero;fill:rgb(62.352941%,38.039216%,41.568627%);fill-opacity:1;" d="M 328.695312 286.109375 L 328.695312 291.84375 L 337.261719 291.320312 L 337.144531 286.597656 Z M 328.695312 286.109375 "/>
<path style=" stroke:none;fill-rule:nonzero;fill:rgb(18.431373%,18.039216%,25.490196%);fill-opacity:1;" d="M 309.546875 193.332031 L 312.570312 232.421875 L 322.144531 289.757812 L 337.261719 287.671875 L 332.222656 242.324219 L 334.238281 200.628906 Z M 309.546875 193.332031 "/>
<path style=" stroke:none;fill-rule:nonzero;fill:rgb(18.431373%,18.039216%,25.490196%);fill-opacity:1;" d="M 349.863281 164.144531 L 313.578125 164.664062 L 309.546875 193.332031 L 334.238281 205.320312 L 340.285156 228.253906 L 309.546875 262.132812 L 321.640625 277.769531 C 321.640625 277.769531 338.773438 253.792969 351.375 240.242188 C 363.972656 226.691406 357.925781 185.511719 357.925781 185.511719 Z M 349.863281 164.144531 "/>
<path style=" stroke:none;fill-rule:nonzero;fill:rgb(62.352941%,38.039216%,41.568627%);fill-opacity:1;" d="M 339.277344 78.664062 C 339.277344 84.996094 334.316406 90.128906 328.191406 90.128906 C 322.070312 90.128906 317.105469 84.996094 317.105469 78.664062 C 317.105469 72.328125 322.070312 67.195312 328.191406 67.195312 C 334.316406 67.195312 339.277344 72.328125 339.277344 78.664062 Z M 339.277344 78.664062 "/>
<path style=" stroke:none;fill-rule:nonzero;fill:rgb(62.352941%,38.039216%,41.568627%);fill-opacity:1;" d="M 324.160156 86.480469 L 324.160156 97.949219 L 331.71875 110.457031 C 331.71875 110.457031 343.308594 101.597656 340.789062 99.511719 C 338.269531 97.425781 337.765625 81.269531 337.765625 81.269531 Z M 324.160156 86.480469 "/>
<path style=" stroke:none;fill-rule:nonzero;fill:rgb(81.568627%,80.392157%,88.235294%);fill-opacity:1;" d="M 324.160156 95.863281 L 316.601562 105.246094 L 319.625 170.398438 L 343.308594 169.875 L 347.339844 113.0625 L 342.300781 98.46875 L 338.84375 93.605469 L 332.726562 103.160156 Z M 324.160156 95.863281 "/>
<path style=" stroke:none;fill-rule:nonzero;fill:rgb(18.431373%,18.039216%,25.490196%);fill-opacity:1;" d="M 312.066406 129.742188 L 306.523438 151.632812 L 312.066406 173.523438 L 302.996094 186.035156 L 294.933594 146.421875 C 294.933594 146.421875 300.980469 114.105469 301.484375 110.457031 C 301.988281 106.808594 302.996094 106.289062 302.996094 106.289062 L 307.027344 106.808594 Z M 312.066406 129.742188 "/>
<path style=" stroke:none;fill-rule:nonzero;fill:rgb(18.431373%,18.039216%,25.490196%);fill-opacity:1;" d="M 352.378906 138.082031 L 355.910156 144.859375 L 356.917969 156.324219 L 354.902344 169.355469 L 361.957031 181.34375 L 369.011719 148.507812 L 361.453125 106.285156 L 358.429688 106.285156 Z M 352.378906 138.082031 "/>
<path style=" stroke:none;fill-rule:nonzero;fill:rgb(18.431373%,18.039216%,25.490196%);fill-opacity:1;" d="M 309.546875 261.613281 C 309.546875 261.613281 302.492188 263.695312 299.972656 264.21875 C 297.453125 264.738281 301.484375 274.640625 301.484375 274.640625 C 301.484375 274.640625 304.003906 288.195312 304.507812 290.800781 C 305.011719 293.40625 308.539062 302.265625 313.074219 303.308594 C 317.609375 304.351562 314.585938 285.066406 314.585938 285.066406 C 314.585938 285.066406 316.601562 278.8125 316.601562 276.726562 C 316.601562 274.640625 313.578125 275.683594 313.578125 275.683594 C 305.515625 274.640625 309.546875 261.613281 309.546875 261.613281 Z M 309.546875 261.613281 "/>
<path style=" stroke:none;fill-rule:nonzero;fill:rgb(18.431373%,18.039216%,25.490196%);fill-opacity:1;" d="M 326.175781 301.746094 C 326.679688 304.871094 325.671875 304.871094 333.734375 305.914062 C 341.796875 306.957031 339.78125 300.183594 339.78125 300.183594 C 339.445312 296.988281 338.769531 293.839844 337.765625 290.800781 C 336.253906 286.628906 328.191406 291.84375 328.191406 291.84375 C 328.191406 291.84375 325.671875 298.617188 326.175781 301.746094 Z M 326.175781 301.746094 "/>
<path style=" stroke:none;fill-rule:nonzero;fill:rgb(18.431373%,18.039216%,25.490196%);fill-opacity:1;" d="M 337.78125 81.632812 L 338.042969 86.269531 C 338.042969 86.269531 341.292969 78.664062 341.796875 70.84375 C 342.300781 63.027344 333.734375 61.460938 328.695312 60.941406 C 323.65625 60.417969 315.089844 64.070312 315.089844 68.238281 C 315.089844 72.40625 324.160156 71.367188 327.6875 70.324219 C 331.214844 69.28125 332.726562 78.140625 332.726562 78.140625 L 334.742188 78.664062 Z M 337.78125 81.632812 "/>
<path style=" stroke:none;fill-rule:nonzero;fill:rgb(81.568627%,80.392157%,88.235294%);fill-opacity:1;" d="M 321.1875 99.554688 L 324.160156 95.863281 L 332.726562 103.160156 L 324.160156 109.414062 Z M 321.1875 99.554688 "/>
<path style=" stroke:none;fill-rule:nonzero;fill:rgb(81.568627%,80.392157%,88.235294%);fill-opacity:1;" d="M 342.300781 98.46875 L 338.773438 93.777344 L 332.726562 103.160156 L 340.285156 108.894531 Z M 342.300781 98.46875 "/>
<path style=" stroke:none;fill-rule:nonzero;fill:rgb(18.431373%,18.039216%,25.490196%);fill-opacity:1;" d="M 310.554688 137.039062 L 312.570312 156.847656 L 308.539062 168.832031 L 306.019531 180.300781 C 306.019531 180.300781 306.019531 191.246094 316.097656 191.769531 C 326.175781 192.289062 334.742188 158.929688 334.742188 158.929688 C 334.742188 158.929688 336.253906 166.226562 337.261719 170.398438 C 338.269531 174.566406 355.40625 191.246094 355.40625 191.246094 C 355.40625 191.246094 359.4375 190.726562 362.964844 182.386719 C 366.492188 174.046875 355.910156 166.226562 355.910156 166.226562 L 352.886719 155.28125 L 353.894531 141.730469 L 360.949219 106.289062 L 340.035156 95.082031 L 342.300781 125.050781 L 334.742188 148.507812 L 323.40625 96.644531 L 319.625 99.511719 L 303.5 106.289062 Z M 310.554688 137.039062 "/>
<path style=" stroke:none;fill-rule:nonzero;fill:rgb(81.568627%,80.392157%,88.235294%);fill-opacity:1;" d="M 111.390625 215.875 C 110.394531 215.867188 109.386719 215.859375 108.398438 215.828125 L 108.429688 214.796875 C 109.40625 214.828125 110.410156 214.839844 111.390625 214.84375 C 112.378906 214.84375 113.382812 214.824219 114.382812 214.792969 L 114.414062 215.824219 C 113.40625 215.859375 112.390625 215.875 111.390625 215.875 Z M 102.394531 215.4375 C 100.40625 215.242188 98.398438 214.980469 96.425781 214.65625 L 96.585938 213.636719 C 98.535156 213.957031 100.519531 214.21875 102.488281 214.410156 Z M 120.417969 215.425781 L 120.320312 214.398438 C 122.289062 214.207031 124.273438 213.941406 126.222656 213.617188 L 126.382812 214.636719 C 124.410156 214.964844 122.402344 215.230469 120.417969 215.425781 Z M 90.519531 213.476562 C 88.574219 213.019531 86.613281 212.492188 84.699219 211.90625 L 84.980469 210.914062 C 86.878906 211.496094 88.816406 212.015625 90.742188 212.46875 Z M 132.289062 213.449219 L 132.066406 212.445312 C 133.996094 211.988281 135.933594 211.464844 137.824219 210.882812 L 138.109375 211.875 C 136.199219 212.460938 134.238281 212.992188 132.289062 213.449219 Z M 78.988281 209.949219 C 77.109375 209.238281 75.230469 208.453125 73.402344 207.613281 L 73.804688 206.671875 C 75.613281 207.496094 77.472656 208.277344 79.332031 208.980469 Z M 143.816406 209.910156 L 143.472656 208.941406 C 145.316406 208.238281 147.171875 207.460938 148.976562 206.632812 L 149.382812 207.574219 C 147.554688 208.414062 145.683594 209.199219 143.816406 209.910156 Z M 67.976562 204.910156 C 66.207031 203.957031 64.441406 202.929688 62.730469 201.855469 L 63.246094 200.96875 C 64.941406 202.035156 66.6875 203.050781 68.4375 203.996094 Z M 154.792969 204.875 L 154.332031 203.957031 C 156.078125 203.015625 157.820312 201.996094 159.507812 200.933594 L 160.027344 201.816406 C 158.320312 202.890625 156.558594 203.917969 154.792969 204.875 Z M 57.683594 198.457031 C 56.046875 197.273438 54.425781 196.019531 52.863281 194.730469 L 53.484375 193.925781 C 55.03125 195.199219 56.636719 196.441406 58.257812 197.609375 Z M 165.066406 198.417969 L 164.492188 197.574219 C 166.113281 196.402344 167.714844 195.164062 169.257812 193.886719 L 169.878906 194.695312 C 168.320312 195.984375 166.699219 197.234375 165.066406 198.417969 Z M 48.277344 190.695312 C 46.796875 189.308594 45.34375 187.851562 43.953125 186.371094 L 44.671875 185.652344 C 46.046875 187.117188 47.484375 188.558594 48.949219 189.933594 Z M 174.460938 190.660156 L 173.789062 189.894531 C 175.246094 188.523438 176.6875 187.082031 178.0625 185.613281 L 178.78125 186.332031 C 177.390625 187.816406 175.933594 189.273438 174.460938 190.660156 Z M 39.90625 181.769531 C 38.609375 180.195312 37.347656 178.5625 36.152344 176.910156 L 36.949219 176.289062 C 38.132812 177.925781 39.382812 179.542969 40.667969 181.097656 Z M 182.828125 181.726562 L 182.066406 181.054688 C 183.347656 179.5 184.601562 177.878906 185.78125 176.242188 L 186.582031 176.863281 C 185.386719 178.515625 184.125 180.152344 182.828125 181.726562 Z M 32.703125 171.8125 C 31.609375 170.082031 30.558594 168.296875 29.578125 166.503906 L 30.449219 165.996094 C 31.417969 167.769531 32.457031 169.539062 33.539062 171.25 Z M 190.03125 171.757812 L 189.195312 171.195312 C 190.277344 169.480469 191.316406 167.707031 192.289062 165.929688 L 193.15625 166.4375 C 192.175781 168.234375 191.125 170.023438 190.03125 171.757812 Z M 26.789062 160.996094 C 25.921875 159.136719 25.101562 157.226562 24.351562 155.316406 L 25.273438 154.929688 C 26.015625 156.816406 26.828125 158.707031 27.6875 160.546875 Z M 195.945312 160.914062 L 195.046875 160.46875 C 195.90625 158.625 196.71875 156.730469 197.460938 154.832031 L 198.386719 155.21875 C 197.636719 157.136719 196.816406 159.054688 195.945312 160.914062 Z M 22.265625 149.480469 C 21.632812 147.519531 21.054688 145.511719 20.550781 143.515625 L 21.515625 143.253906 C 22.015625 145.226562 22.585938 147.214844 23.210938 149.152344 Z M 200.46875 149.371094 L 199.519531 149.046875 C 200.140625 147.109375 200.710938 145.121094 201.210938 143.144531 L 202.175781 143.40625 C 201.671875 145.40625 201.097656 147.414062 200.46875 149.371094 Z M 19.210938 137.449219 C 18.828125 135.425781 18.503906 133.359375 18.25 131.308594 L 19.242188 131.175781 C 19.492188 133.203125 19.8125 135.25 20.191406 137.253906 Z M 203.511719 137.335938 L 202.53125 137.140625 C 202.90625 135.136719 203.222656 133.09375 203.472656 131.0625 L 204.464844 131.195312 C 204.210938 133.246094 203.890625 135.3125 203.511719 137.335938 Z M 17.671875 125.117188 C 17.542969 123.058594 17.480469 120.964844 17.476562 118.898438 L 18.476562 118.894531 C 18.476562 120.941406 18.542969 123.011719 18.667969 125.050781 Z M 205.035156 125 L 204.035156 124.933594 C 204.160156 122.898438 204.222656 120.828125 204.222656 118.78125 L 204.222656 118.554688 L 205.222656 118.554688 L 205.222656 118.78125 C 205.222656 120.851562 205.160156 122.945312 205.035156 125 Z M 18.65625 112.742188 L 17.660156 112.679688 C 17.78125 110.617188 17.972656 108.53125 18.222656 106.484375 L 19.214844 106.613281 C 18.964844 108.640625 18.777344 110.703125 18.65625 112.742188 Z M 204.023438 112.402344 C 203.894531 110.363281 203.699219 108.300781 203.445312 106.277344 L 204.433594 106.144531 C 204.691406 108.191406 204.886719 110.273438 205.019531 112.335938 Z M 20.148438 100.535156 L 19.167969 100.339844 C 19.542969 98.3125 19.992188 96.273438 20.492188 94.273438 L 21.460938 94.53125 C 20.960938 96.511719 20.519531 98.53125 20.148438 100.535156 Z M 202.488281 100.203125 C 202.105469 98.195312 201.660156 96.175781 201.15625 94.203125 L 202.121094 93.941406 C 202.628906 95.933594 203.082031 97.976562 203.46875 100.003906 Z M 23.144531 88.628906 L 22.195312 88.304688 C 22.820312 86.339844 23.519531 84.371094 24.269531 82.453125 L 25.195312 82.839844 C 24.453125 84.738281 23.761719 86.6875 23.144531 88.628906 Z M 199.453125 88.304688 C 198.824219 86.367188 198.128906 84.425781 197.382812 82.53125 L 198.308594 82.144531 C 199.0625 84.054688 199.765625 86.019531 200.398438 87.976562 Z M 27.605469 77.199219 L 26.703125 76.753906 C 27.570312 74.890625 28.507812 73.03125 29.488281 71.230469 L 30.359375 71.734375 C 29.386719 73.519531 28.460938 75.355469 27.605469 77.199219 Z M 194.964844 76.917969 C 194.105469 75.085938 193.175781 73.253906 192.199219 71.472656 L 193.066406 70.964844 C 194.054688 72.761719 194.992188 74.613281 195.863281 76.46875 Z M 33.445312 66.464844 L 32.609375 65.902344 C 33.695312 64.171875 34.855469 62.453125 36.050781 60.796875 L 36.851562 61.414062 C 35.667969 63.050781 34.523438 64.753906 33.445312 66.464844 Z M 189.101562 66.222656 C 188.019531 64.515625 186.871094 62.820312 185.683594 61.183594 L 186.484375 60.566406 C 187.683594 62.21875 188.84375 63.933594 189.9375 65.65625 Z M 40.5625 56.59375 L 39.800781 55.925781 C 41.09375 54.351562 42.453125 52.800781 43.84375 51.316406 L 44.558594 52.035156 C 43.1875 53.503906 41.839844 55.039062 40.5625 56.59375 Z M 181.960938 56.382812 C 180.679688 54.832031 179.328125 53.300781 177.953125 51.835938 L 178.667969 51.113281 C 180.058594 52.59375 181.421875 54.140625 182.722656 55.710938 Z M 48.832031 47.746094 L 48.160156 46.980469 C 49.636719 45.589844 51.175781 44.230469 52.734375 42.941406 L 53.355469 43.746094 C 51.816406 45.023438 50.292969 46.367188 48.832031 47.746094 Z M 173.667969 47.558594 C 172.203125 46.1875 170.675781 44.84375 169.128906 43.570312 L 169.75 42.765625 C 171.316406 44.050781 172.859375 45.40625 174.339844 46.792969 Z M 58.117188 40.058594 L 57.546875 39.210938 C 59.179688 38.027344 60.871094 36.882812 62.578125 35.808594 L 63.097656 36.691406 C 61.410156 37.753906 59.734375 38.886719 58.117188 40.058594 Z M 164.355469 39.894531 C 162.726562 38.722656 161.046875 37.59375 159.359375 36.535156 L 159.875 35.652344 C 161.582031 36.722656 163.28125 37.863281 164.925781 39.046875 Z M 68.269531 33.660156 L 67.808594 32.746094 C 69.574219 31.785156 71.394531 30.875 73.214844 30.035156 L 73.621094 30.980469 C 71.816406 31.808594 70.019531 32.710938 68.269531 33.660156 Z M 154.164062 33.519531 C 152.410156 32.574219 150.605469 31.675781 148.792969 30.851562 L 149.195312 29.90625 C 151.027344 30.738281 152.855469 31.648438 154.625 32.601562 Z M 79.125 28.664062 L 78.777344 27.695312 C 80.652344 26.976562 82.570312 26.316406 84.484375 25.722656 L 84.769531 26.714844 C 82.878906 27.296875 80.976562 27.953125 79.125 28.664062 Z M 143.265625 28.546875 C 141.410156 27.84375 139.507812 27.195312 137.613281 26.617188 L 137.894531 25.628906 C 139.808594 26.210938 141.730469 26.867188 143.609375 27.574219 Z M 90.527344 25.148438 L 90.304688 24.140625 C 92.246094 23.679688 94.234375 23.277344 96.207031 22.949219 L 96.367188 23.96875 C 94.414062 24.296875 92.449219 24.691406 90.527344 25.148438 Z M 131.851562 25.070312 C 129.925781 24.625 127.960938 24.234375 126.007812 23.914062 L 126.164062 22.894531 C 128.136719 23.214844 130.125 23.609375 132.070312 24.066406 Z M 102.269531 23.175781 L 102.171875 22.148438 C 104.15625 21.949219 106.175781 21.8125 108.175781 21.746094 L 108.207031 22.777344 C 106.230469 22.84375 104.230469 22.980469 102.269531 23.175781 Z M 120.101562 23.144531 C 118.136719 22.953125 116.140625 22.828125 114.164062 22.765625 L 114.191406 21.734375 C 116.1875 21.796875 118.210938 21.925781 120.195312 22.117188 Z M 120.101562 23.144531 "/>
<path style=" stroke:none;fill-rule:nonzero;fill:rgb(25.098039%,41.960784%,90.196078%);fill-opacity:1;" d="M 131.324219 24.273438 C 131.324219 37.679688 120.816406 48.546875 107.855469 48.546875 C 94.894531 48.546875 84.386719 37.679688 84.386719 24.273438 C 84.386719 10.867188 94.894531 0 107.855469 0 C 120.816406 0 131.324219 10.867188 131.324219 24.273438 Z M 131.324219 24.273438 "/>
<path style=" stroke:none;fill-rule:nonzero;fill:rgb(25.098039%,41.960784%,90.196078%);fill-opacity:1;" d="M 222.199219 90.378906 C 222.199219 103.785156 211.691406 114.652344 198.730469 114.652344 C 185.769531 114.652344 175.261719 103.785156 175.261719 90.378906 C 175.261719 76.972656 185.769531 66.105469 198.730469 66.105469 C 211.691406 66.105469 222.199219 76.972656 222.199219 90.378906 Z M 222.199219 90.378906 "/>
<path style=" stroke:none;fill-rule:nonzero;fill:rgb(25.098039%,41.960784%,90.196078%);fill-opacity:1;" d="M 193.738281 191.601562 C 193.738281 205.007812 183.230469 215.875 170.269531 215.875 C 157.308594 215.875 146.800781 205.007812 146.800781 191.601562 C 146.800781 178.195312 157.308594 167.328125 170.269531 167.328125 C 183.230469 167.328125 193.738281 178.195312 193.738281 191.601562 Z M 193.738281 191.601562 "/>
<path style=" stroke:none;fill-rule:nonzero;fill:rgb(25.098039%,41.960784%,90.196078%);fill-opacity:1;" d="M 80.890625 195.734375 C 80.890625 209.140625 70.382812 220.007812 57.421875 220.007812 C 44.460938 220.007812 33.953125 209.140625 33.953125 195.734375 C 33.953125 182.328125 44.460938 171.460938 57.421875 171.460938 C 70.382812 171.460938 80.890625 182.328125 80.890625 195.734375 Z M 80.890625 195.734375 "/>
<path style=" stroke:none;fill-rule:nonzero;fill:rgb(25.098039%,41.960784%,90.196078%);fill-opacity:1;" d="M 46.9375 90.378906 C 46.9375 103.785156 36.429688 114.652344 23.46875 114.652344 C 10.507812 114.652344 0 103.785156 0 90.378906 C 0 76.972656 10.507812 66.105469 23.46875 66.105469 C 36.429688 66.105469 46.9375 76.972656 46.9375 90.378906 Z M 46.9375 90.378906 "/>
<path style=" stroke:none;fill-rule:nonzero;fill:rgb(100%,100%,100%);fill-opacity:1;" d="M 117.910156 22.335938 L 109.726562 22.335938 C 108.175781 22.335938 106.917969 21.039062 106.917969 19.433594 L 106.917969 10.96875 C 106.917969 10.835938 106.8125 10.726562 106.683594 10.726562 L 101.304688 10.726562 C 99.238281 10.726562 97.5625 12.460938 97.5625 14.597656 L 97.5625 33.949219 C 97.5625 36.085938 99.238281 37.820312 101.304688 37.820312 L 114.402344 37.820312 C 116.46875 37.820312 118.144531 36.085938 118.144531 33.949219 L 118.144531 22.578125 C 118.144531 22.445312 118.039062 22.335938 117.910156 22.335938 Z M 112.53125 32.015625 L 103.175781 32.015625 C 102.660156 32.015625 102.242188 31.582031 102.242188 31.046875 C 102.242188 30.511719 102.660156 30.078125 103.175781 30.078125 L 112.53125 30.078125 C 113.046875 30.078125 113.46875 30.511719 113.46875 31.046875 C 113.46875 31.582031 113.046875 32.015625 112.53125 32.015625 Z M 112.53125 27.175781 L 103.175781 27.175781 C 102.660156 27.175781 102.242188 26.742188 102.242188 26.207031 C 102.242188 25.675781 102.660156 25.242188 103.175781 25.242188 L 112.53125 25.242188 C 113.046875 25.242188 113.46875 25.675781 113.46875 26.207031 C 113.46875 26.742188 113.046875 27.175781 112.53125 27.175781 Z M 112.53125 27.175781 "/>
<path style=" stroke:none;fill-rule:nonzero;fill:rgb(100%,100%,100%);fill-opacity:1;" d="M 117.398438 20.195312 L 108.988281 11.5 C 108.957031 11.464844 108.90625 11.453125 108.863281 11.472656 C 108.820312 11.492188 108.789062 11.535156 108.789062 11.585938 L 108.789062 19.433594 C 108.789062 19.96875 109.207031 20.402344 109.726562 20.402344 L 117.316406 20.402344 C 117.363281 20.402344 117.40625 20.371094 117.421875 20.328125 C 117.441406 20.28125 117.429688 20.230469 117.398438 20.195312 Z M 117.398438 20.195312 "/>
<path style=" stroke:none;fill-rule:nonzero;fill:rgb(100%,100%,100%);fill-opacity:1;" d="M 173.664062 186.820312 C 173.070312 186.820312 172.558594 187.253906 172.445312 187.855469 C 172.328125 188.457031 172.640625 189.0625 173.191406 189.296875 C 173.738281 189.53125 174.371094 189.332031 174.699219 188.820312 C 175.027344 188.308594 174.964844 187.628906 174.542969 187.195312 C 174.3125 186.957031 173.996094 186.820312 173.664062 186.820312 Z M 173.664062 186.820312 "/>
<path style=" stroke:none;fill-rule:nonzero;fill:rgb(100%,100%,100%);fill-opacity:1;" d="M 180.589844 181.675781 L 180.589844 181.671875 C 180.507812 181.308594 180.234375 181.023438 179.882812 180.933594 C 178.496094 180.585938 176.308594 180.957031 173.890625 181.960938 C 171.5625 182.894531 169.429688 184.292969 167.617188 186.066406 C 167.121094 186.578125 166.664062 187.121094 166.242188 187.699219 C 165.308594 187.632812 164.375 187.785156 163.511719 188.152344 C 160.820312 189.375 160.054688 192.511719 159.847656 193.796875 C 159.789062 194.167969 159.898438 194.546875 160.148438 194.820312 C 160.394531 195.09375 160.753906 195.234375 161.117188 195.195312 L 161.121094 195.195312 L 164.117188 194.855469 C 164.121094 194.894531 164.125 194.933594 164.128906 194.964844 C 164.167969 195.34375 164.332031 195.695312 164.589844 195.964844 L 166.054688 197.476562 C 166.3125 197.746094 166.652344 197.914062 167.019531 197.957031 L 167.117188 197.964844 L 166.792969 201.0625 L 166.792969 201.070312 C 166.726562 201.730469 167.191406 202.324219 167.832031 202.390625 C 167.867188 202.394531 167.902344 202.398438 167.941406 202.398438 C 168.003906 202.398438 168.070312 202.390625 168.132812 202.382812 C 169.382812 202.171875 172.414062 201.386719 173.59375 198.589844 C 173.945312 197.699219 174.09375 196.738281 174.035156 195.777344 C 174.59375 195.34375 175.121094 194.867188 175.617188 194.355469 C 177.332031 192.496094 178.683594 190.3125 179.589844 187.917969 C 180.554688 185.445312 180.917969 183.167969 180.589844 181.675781 Z M 175.597656 190.105469 C 174.53125 191.210938 172.796875 191.210938 171.726562 190.105469 C 170.65625 189 170.65625 187.207031 171.722656 186.101562 C 172.792969 184.996094 174.527344 184.992188 175.597656 186.097656 L 175.597656 186.101562 C 176.667969 187.191406 176.679688 188.96875 175.628906 190.074219 Z M 175.597656 190.105469 "/>
<path style=" stroke:none;fill-rule:nonzero;fill:rgb(100%,100%,100%);fill-opacity:1;" d="M 165.886719 197.890625 C 165.707031 197.867188 165.523438 197.910156 165.375 198.015625 C 165.074219 198.226562 164.777344 198.4375 164.472656 198.640625 C 164.203125 198.820312 163.851562 198.785156 163.617188 198.554688 C 163.386719 198.328125 163.335938 197.960938 163.496094 197.675781 L 164.0625 196.664062 C 164.226562 196.414062 164.234375 196.085938 164.082031 195.828125 C 163.929688 195.566406 163.648438 195.425781 163.355469 195.460938 C 162.726562 195.542969 162.144531 195.839844 161.695312 196.304688 C 161.523438 196.480469 161.007812 197.019531 160.726562 199.0625 C 160.648438 199.652344 160.597656 200.242188 160.578125 200.835938 C 160.566406 201.261719 160.890625 201.617188 161.304688 201.625 C 161.308594 201.625 161.316406 201.625 161.324219 201.625 L 161.339844 201.625 C 161.914062 201.605469 162.488281 201.554688 163.054688 201.472656 C 165.035156 201.183594 165.554688 200.648438 165.726562 200.46875 C 166.175781 200.007812 166.460938 199.398438 166.535156 198.746094 C 166.585938 198.324219 166.292969 197.941406 165.886719 197.890625 Z M 165.886719 197.890625 "/>
<path style=" stroke:none;fill-rule:nonzero;fill:rgb(100%,100%,100%);fill-opacity:1;" d="M 49.34375 208.921875 L 47.644531 208.921875 C 46.941406 208.921875 46.371094 208.332031 46.371094 207.605469 L 46.371094 199.691406 C 46.371094 198.960938 46.941406 198.371094 47.644531 198.371094 L 49.34375 198.371094 C 50.050781 198.371094 50.621094 198.960938 50.621094 199.691406 L 50.621094 207.605469 C 50.621094 208.332031 50.050781 208.921875 49.34375 208.921875 Z M 49.34375 208.921875 "/>
<path style=" stroke:none;fill-rule:nonzero;fill:rgb(100%,100%,100%);fill-opacity:1;" d="M 61.25 208.921875 L 59.546875 208.921875 C 58.84375 208.921875 58.273438 208.332031 58.273438 207.605469 L 58.273438 194.414062 C 58.273438 193.6875 58.84375 193.09375 59.546875 193.09375 L 61.25 193.09375 C 61.953125 193.09375 62.523438 193.6875 62.523438 194.414062 L 62.523438 207.605469 C 62.523438 208.332031 61.953125 208.921875 61.25 208.921875 Z M 61.25 208.921875 "/>
<path style=" stroke:none;fill-rule:nonzero;fill:rgb(100%,100%,100%);fill-opacity:1;" d="M 67.199219 208.921875 L 65.5 208.921875 C 64.792969 208.921875 64.222656 208.332031 64.222656 207.605469 L 64.222656 188.257812 C 64.222656 187.53125 64.792969 186.941406 65.5 186.941406 L 67.199219 186.941406 C 67.902344 186.941406 68.476562 187.53125 68.476562 188.257812 L 68.476562 207.605469 C 68.476562 208.332031 67.902344 208.921875 67.199219 208.921875 Z M 67.199219 208.921875 "/>
<path style=" stroke:none;fill-rule:nonzero;fill:rgb(100%,100%,100%);fill-opacity:1;" d="M 55.296875 208.921875 L 53.597656 208.921875 C 52.890625 208.921875 52.320312 208.332031 52.320312 207.605469 L 52.320312 183.863281 C 52.320312 183.132812 52.890625 182.542969 53.597656 182.542969 L 55.296875 182.542969 C 56 182.542969 56.570312 183.132812 56.570312 183.863281 L 56.570312 207.605469 C 56.570312 208.332031 56 208.921875 55.296875 208.921875 Z M 55.296875 208.921875 "/>
<path style=" stroke:none;fill-rule:nonzero;fill:rgb(100%,100%,100%);fill-opacity:1;" d="M 199.855469 89.742188 L 198.640625 88.484375 C 198.0625 87.886719 197.121094 87.882812 196.539062 88.480469 L 188.09375 96.542969 C 187.785156 96.824219 187.59375 97.222656 187.566406 97.652344 C 187.546875 98.082031 187.703125 98.496094 187.996094 98.804688 L 189.808594 100.699219 L 189.8125 100.703125 C 190.09375 100.992188 190.472656 101.15625 190.867188 101.15625 L 190.921875 101.15625 C 191.335938 101.132812 191.726562 100.941406 192 100.621094 L 199.851562 91.925781 C 200.433594 91.324219 200.4375 90.351562 199.859375 89.746094 Z M 199.855469 89.742188 "/>
<path style=" stroke:none;fill-rule:nonzero;fill:rgb(100%,100%,100%);fill-opacity:1;" d="M 209.617188 87.203125 L 209.605469 87.1875 L 208.011719 85.554688 C 207.820312 85.359375 207.566406 85.253906 207.300781 85.253906 C 207.085938 85.253906 206.878906 85.324219 206.703125 85.453125 C 206.703125 85.433594 206.707031 85.410156 206.707031 85.394531 C 206.773438 84.972656 206.6875 84.542969 206.464844 84.179688 C 206.113281 83.691406 205.730469 83.230469 205.3125 82.796875 L 205.308594 82.792969 C 204.144531 81.636719 202.773438 80.722656 201.273438 80.101562 C 200.488281 79.769531 199.652344 79.597656 198.804688 79.597656 C 197.707031 79.589844 196.640625 79.976562 195.792969 80.691406 C 195.550781 80.929688 195.328125 81.191406 195.132812 81.472656 C 194.9375 81.746094 194.945312 82.121094 195.144531 82.390625 C 195.34375 82.660156 195.691406 82.761719 196 82.640625 C 196.128906 82.589844 196.261719 82.550781 196.398438 82.515625 C 196.679688 82.453125 196.96875 82.433594 197.257812 82.460938 C 197.851562 82.523438 198.421875 82.742188 198.917969 83.089844 C 199.480469 83.578125 199.792969 84.308594 199.765625 85.066406 C 199.5625 85.675781 199.246094 86.238281 198.835938 86.726562 C 198.613281 87.035156 198.640625 87.464844 198.902344 87.738281 L 200.503906 89.394531 C 200.785156 89.683594 201.234375 89.695312 201.527344 89.421875 C 201.980469 89.003906 202.671875 88.375 202.910156 88.21875 C 203.117188 88.078125 203.351562 87.980469 203.597656 87.941406 C 203.777344 87.921875 203.960938 87.960938 204.121094 88.054688 C 204.121094 88.070312 204.117188 88.089844 204.105469 88.101562 L 204.007812 88.199219 C 203.617188 88.601562 203.617188 89.257812 204.003906 89.664062 L 204.011719 89.667969 L 205.605469 91.300781 C 205.792969 91.492188 206.050781 91.601562 206.316406 91.601562 C 206.582031 91.601562 206.835938 91.492188 207.023438 91.300781 L 209.605469 88.664062 C 209.613281 88.65625 209.625 88.644531 209.632812 88.636719 C 209.992188 88.226562 209.984375 87.601562 209.617188 87.203125 Z M 209.617188 87.203125 "/>
<path style=" stroke:none;fill-rule:nonzero;fill:rgb(100%,100%,100%);fill-opacity:1;" d="M 27.195312 88.933594 C 26.816406 88.933594 26.476562 88.699219 26.332031 88.339844 C 26.191406 87.976562 26.269531 87.5625 26.535156 87.289062 L 28.671875 85.078125 L 26.535156 82.871094 C 26.171875 82.492188 26.171875 81.882812 26.535156 81.507812 C 26.898438 81.132812 27.488281 81.132812 27.851562 81.507812 L 30.648438 84.398438 C 31.011719 84.773438 31.011719 85.382812 30.648438 85.761719 L 27.851562 88.652344 C 27.679688 88.832031 27.441406 88.933594 27.195312 88.933594 Z M 27.195312 88.933594 "/>
<path style=" stroke:none;fill-rule:nonzero;fill:rgb(100%,100%,100%);fill-opacity:1;" d="M 12.289062 91.824219 C 11.773438 91.824219 11.359375 91.390625 11.359375 90.859375 L 11.359375 89.898438 C 11.375 86.710938 13.867188 84.132812 16.945312 84.117188 L 29.058594 84.117188 C 29.570312 84.117188 29.988281 84.546875 29.988281 85.078125 C 29.988281 85.609375 29.570312 86.042969 29.058594 86.042969 L 16.949219 86.042969 C 14.894531 86.054688 13.230469 87.773438 13.222656 89.898438 L 13.222656 90.859375 C 13.222656 91.390625 12.804688 91.824219 12.289062 91.824219 Z M 12.289062 91.824219 "/>
<path style=" stroke:none;fill-rule:nonzero;fill:rgb(100%,100%,100%);fill-opacity:1;" d="M 19.742188 99.53125 C 19.496094 99.53125 19.257812 99.429688 19.082031 99.25 L 16.289062 96.359375 C 15.925781 95.984375 15.925781 95.371094 16.289062 94.996094 L 19.082031 92.105469 C 19.449219 91.730469 20.035156 91.730469 20.398438 92.105469 C 20.765625 92.480469 20.765625 93.09375 20.402344 93.46875 L 18.265625 95.675781 L 20.402344 97.886719 C 20.667969 98.164062 20.746094 98.578125 20.601562 98.9375 C 20.457031 99.296875 20.117188 99.53125 19.742188 99.53125 Z M 19.742188 99.53125 "/>
<path style=" stroke:none;fill-rule:nonzero;fill:rgb(100%,100%,100%);fill-opacity:1;" d="M 17.878906 96.640625 C 17.363281 96.640625 16.949219 96.210938 16.949219 95.675781 C 16.949219 95.144531 17.363281 94.714844 17.878906 94.714844 L 29.988281 94.714844 C 32.042969 94.703125 33.703125 92.980469 33.714844 90.855469 L 33.714844 89.898438 C 33.714844 89.363281 34.132812 88.933594 34.648438 88.933594 C 35.160156 88.933594 35.578125 89.363281 35.578125 89.898438 L 35.578125 90.859375 C 35.5625 94.046875 33.070312 96.625 29.992188 96.640625 Z M 17.878906 96.640625 "/>
</g>
</svg>
