<?xml version="1.0" encoding="UTF-8"?>
<svg xmlns="http://www.w3.org/2000/svg" xmlns:xlink="http://www.w3.org/1999/xlink" width="400pt" height="230pt" viewBox="0 0 400 230" version="1.1">
<defs>
<filter id="alpha" filterUnits="objectBoundingBox" x="0%" y="0%" width="100%" height="100%">
  <feColorMatrix type="matrix" in="SourceGraphic" values="0 0 0 0 1 0 0 0 0 1 0 0 0 0 1 0 0 0 1 0"/>
</filter>
<mask id="mask0">
  <g filter="url(#alpha)">
<rect x="0" y="0" width="400" height="230" style="fill:rgb(0%,0%,0%);fill-opacity:0.101961;stroke:none;"/>
  </g>
</mask>
<clipPath id="clip1">
  <rect x="0" y="0" width="400" height="230"/>
</clipPath>
<g id="surface5" clip-path="url(#clip1)">
<path style=" stroke:none;fill-rule:nonzero;fill:rgb(0%,0%,0%);fill-opacity:1;" d="M 324.976562 164.863281 C 324.976562 165.09375 324.789062 165.28125 324.554688 165.28125 C 324.324219 165.28125 324.132812 165.09375 324.132812 164.863281 C 324.132812 164.628906 324.324219 164.441406 324.554688 164.441406 C 324.789062 164.441406 324.976562 164.628906 324.976562 164.863281 Z M 324.976562 164.863281 "/>
</g>
<mask id="mask1">
  <g filter="url(#alpha)">
<rect x="0" y="0" width="400" height="230" style="fill:rgb(0%,0%,0%);fill-opacity:0.101961;stroke:none;"/>
  </g>
</mask>
<clipPath id="clip2">
  <rect x="0" y="0" width="400" height="230"/>
</clipPath>
<g id="surface8" clip-path="url(#clip2)">
<path style=" stroke:none;fill-rule:nonzero;fill:rgb(0%,0%,0%);fill-opacity:1;" d="M 323.546875 171.839844 C 323.546875 172.074219 323.355469 172.261719 323.125 172.261719 C 322.890625 172.261719 322.703125 172.074219 322.703125 171.839844 C 322.703125 171.609375 322.890625 171.417969 323.125 171.417969 C 323.355469 171.417969 323.546875 171.609375 323.546875 171.839844 Z M 323.546875 171.839844 "/>
</g>
</defs>
<g id="surface1">
<path style=" stroke:none;fill-rule:nonzero;fill:rgb(79.607843%,79.607843%,79.607843%);fill-opacity:1;" d="M 260.175781 207.628906 L 132.71875 207.628906 C 126.429688 207.621094 121.332031 202.527344 121.324219 196.234375 L 121.324219 11.394531 C 121.332031 5.105469 126.429688 0.0078125 132.71875 0 L 260.175781 0 C 266.464844 0.0078125 271.5625 5.105469 271.570312 11.394531 L 271.570312 196.234375 C 271.5625 202.527344 266.464844 207.621094 260.175781 207.628906 Z M 260.175781 207.628906 "/>
<path style=" stroke:none;fill-rule:nonzero;fill:rgb(100%,100%,100%);fill-opacity:1;" d="M 260.402344 200.359375 L 132.496094 200.359375 C 130.554688 200.359375 128.984375 198.785156 128.984375 196.847656 L 128.984375 10.78125 C 128.984375 8.84375 130.554688 7.273438 132.496094 7.269531 L 260.402344 7.269531 C 262.339844 7.273438 263.910156 8.84375 263.914062 10.78125 L 263.914062 196.847656 C 263.910156 198.785156 262.339844 200.359375 260.402344 200.359375 Z M 260.402344 200.359375 "/>
<path style=" stroke:none;fill-rule:nonzero;fill:rgb(100%,100%,100%);fill-opacity:1;" d="M 196.933594 3.488281 C 196.933594 4.023438 196.5 4.457031 195.964844 4.457031 C 195.429688 4.457031 194.992188 4.023438 194.992188 3.488281 C 194.992188 2.953125 195.429688 2.519531 195.964844 2.519531 C 196.5 2.519531 196.933594 2.953125 196.933594 3.488281 Z M 196.933594 3.488281 "/>
<path style=" stroke:none;fill-rule:nonzero;fill:rgb(24.705882%,23.921569%,33.72549%);fill-opacity:1;" d="M 195.285156 149.457031 L 195.210938 149.457031 C 194.878906 149.457031 194.609375 149.1875 194.609375 148.855469 L 194.609375 142.855469 C 194.609375 142.527344 194.878906 142.257812 195.210938 142.257812 L 195.285156 142.257812 C 195.617188 142.257812 195.882812 142.527344 195.886719 142.855469 L 195.886719 148.855469 C 195.882812 149.1875 195.617188 149.457031 195.285156 149.457031 Z M 195.285156 149.457031 "/>
<path style=" stroke:none;fill-rule:nonzero;fill:rgb(24.705882%,23.921569%,33.72549%);fill-opacity:1;" d="M 197.683594 149.457031 L 197.609375 149.457031 C 197.28125 149.457031 197.011719 149.1875 197.011719 148.855469 L 197.011719 142.855469 C 197.011719 142.527344 197.28125 142.257812 197.609375 142.257812 L 197.683594 142.257812 C 198.015625 142.257812 198.285156 142.527344 198.285156 142.855469 L 198.285156 148.855469 C 198.285156 149.1875 198.015625 149.457031 197.683594 149.457031 Z M 197.683594 149.457031 "/>
<path style=" stroke:none;fill-rule:nonzero;fill:rgb(24.705882%,23.921569%,33.72549%);fill-opacity:1;" d="M 145.320312 149.398438 L 145.246094 149.398438 C 144.917969 149.398438 144.648438 149.132812 144.648438 148.800781 L 144.648438 142.800781 C 144.648438 142.46875 144.917969 142.199219 145.246094 142.199219 L 145.320312 142.199219 C 145.652344 142.199219 145.921875 142.46875 145.921875 142.800781 L 145.921875 148.800781 C 145.921875 149.132812 145.652344 149.398438 145.320312 149.398438 Z M 145.320312 149.398438 "/>
<path style=" stroke:none;fill-rule:nonzero;fill:rgb(24.705882%,23.921569%,33.72549%);fill-opacity:1;" d="M 148.886719 149.457031 C 148.769531 149.457031 148.660156 149.398438 148.59375 149.304688 L 146.417969 146.214844 C 146.273438 146.007812 146.273438 145.734375 146.414062 145.527344 L 148.589844 142.363281 C 148.679688 142.234375 148.84375 142.179688 148.996094 142.226562 C 149.144531 142.273438 149.246094 142.410156 149.246094 142.570312 L 149.246094 149.097656 C 149.25 149.253906 149.148438 149.390625 148.996094 149.441406 C 148.960938 149.449219 148.925781 149.457031 148.886719 149.457031 Z M 148.886719 149.457031 "/>
<path style=" stroke:none;fill-rule:nonzero;fill:rgb(24.705882%,23.921569%,33.72549%);fill-opacity:1;" d="M 246.972656 148.800781 L 246.972656 142.800781 C 246.972656 142.46875 247.242188 142.199219 247.574219 142.199219 L 247.648438 142.199219 C 247.980469 142.199219 248.246094 142.46875 248.246094 142.800781 L 248.246094 148.800781 C 248.246094 149.132812 247.980469 149.398438 247.648438 149.398438 L 247.574219 149.398438 C 247.242188 149.398438 246.972656 149.132812 246.972656 148.800781 Z M 246.972656 148.800781 "/>
<path style=" stroke:none;fill-rule:nonzero;fill:rgb(24.705882%,23.921569%,33.72549%);fill-opacity:1;" d="M 243.898438 149.441406 C 243.75 149.390625 243.648438 149.253906 243.648438 149.097656 L 243.648438 142.570312 C 243.648438 142.410156 243.75 142.273438 243.902344 142.226562 C 244.050781 142.179688 244.214844 142.234375 244.304688 142.363281 L 246.480469 145.527344 C 246.621094 145.734375 246.621094 146.007812 246.476562 146.214844 L 244.300781 149.304688 C 244.234375 149.398438 244.125 149.457031 244.007812 149.457031 C 243.972656 149.457031 243.933594 149.449219 243.898438 149.441406 Z M 243.898438 149.441406 "/>
<path style=" stroke:none;fill-rule:nonzero;fill:rgb(79.607843%,79.607843%,79.607843%);fill-opacity:1;" d="M 144.847656 130.398438 L 248.207031 130.398438 L 248.207031 131.199219 L 144.847656 131.199219 Z M 144.847656 130.398438 "/>
<path style=" stroke:none;fill-rule:nonzero;fill:rgb(25.098039%,41.960784%,90.196078%);fill-opacity:1;" d="M 144.847656 130.398438 L 214.847656 130.398438 L 214.847656 131.199219 L 144.847656 131.199219 Z M 144.847656 130.398438 "/>
<path style=" stroke:none;fill-rule:nonzero;fill:rgb(25.098039%,41.960784%,90.196078%);fill-opacity:1;" d="M 217.648438 130.800781 C 217.648438 132.347656 216.394531 133.601562 214.847656 133.601562 C 213.300781 133.601562 212.046875 132.347656 212.046875 130.800781 C 212.046875 129.253906 213.300781 128 214.847656 128 C 216.394531 128 217.648438 129.253906 217.648438 130.800781 Z M 217.648438 130.800781 "/>
<path style=" stroke:none;fill-rule:nonzero;fill:rgb(25.098039%,41.960784%,90.196078%);fill-opacity:1;" d="M 196.449219 75 C 192.582031 74.996094 189.453125 71.863281 189.449219 68 L 189.449219 52.800781 C 189.449219 48.933594 192.582031 45.800781 196.449219 45.800781 C 200.3125 45.800781 203.449219 48.933594 203.449219 52.800781 L 203.449219 68 C 203.445312 71.863281 200.3125 74.996094 196.449219 75 Z M 196.449219 75 "/>
<path style=" stroke:none;fill-rule:nonzero;fill:rgb(25.098039%,41.960784%,90.196078%);fill-opacity:1;" d="M 196.449219 80.800781 C 188.277344 80.789062 181.65625 74.171875 181.648438 66 C 181.648438 65.335938 182.183594 64.800781 182.847656 64.800781 C 183.511719 64.800781 184.046875 65.335938 184.046875 66 C 184.046875 72.847656 189.597656 78.398438 196.449219 78.398438 C 203.296875 78.398438 208.847656 72.847656 208.847656 66 C 208.847656 65.335938 209.386719 64.800781 210.046875 64.800781 C 210.710938 64.800781 211.246094 65.335938 211.246094 66 C 211.238281 74.171875 204.617188 80.789062 196.449219 80.800781 Z M 196.449219 80.800781 "/>
<path style=" stroke:none;fill-rule:nonzero;fill:rgb(25.098039%,41.960784%,90.196078%);fill-opacity:1;" d="M 196.449219 94.398438 C 195.785156 94.398438 195.246094 93.863281 195.246094 93.199219 L 195.246094 80 C 195.246094 79.335938 195.785156 78.800781 196.449219 78.800781 C 197.109375 78.800781 197.648438 79.335938 197.648438 80 L 197.648438 93.199219 C 197.648438 93.863281 197.109375 94.398438 196.449219 94.398438 Z M 196.449219 94.398438 "/>
<path style=" stroke:none;fill-rule:nonzero;fill:rgb(100%,100%,100%);fill-opacity:1;" d="M 194.449219 50.398438 C 194.449219 50.84375 194.089844 51.199219 193.648438 51.199219 C 193.207031 51.199219 192.847656 50.84375 192.847656 50.398438 C 192.847656 49.957031 193.207031 49.601562 193.648438 49.601562 C 194.089844 49.601562 194.449219 49.957031 194.449219 50.398438 Z M 194.449219 50.398438 "/>
<path style=" stroke:none;fill-rule:nonzero;fill:rgb(100%,100%,100%);fill-opacity:1;" d="M 194.449219 58 C 194.449219 58.441406 194.089844 58.800781 193.648438 58.800781 C 193.207031 58.800781 192.847656 58.441406 192.847656 58 C 192.847656 57.558594 193.207031 57.199219 193.648438 57.199219 C 194.089844 57.199219 194.449219 57.558594 194.449219 58 Z M 194.449219 58 "/>
<path style=" stroke:none;fill-rule:nonzero;fill:rgb(100%,100%,100%);fill-opacity:1;" d="M 200.046875 53.199219 C 200.046875 53.640625 199.691406 54 199.246094 54 C 198.804688 54 198.449219 53.640625 198.449219 53.199219 C 198.449219 52.757812 198.804688 52.398438 199.246094 52.398438 C 199.691406 52.398438 200.046875 52.757812 200.046875 53.199219 Z M 200.046875 53.199219 "/>
<path style=" stroke:none;fill-rule:nonzero;fill:rgb(25.098039%,41.960784%,90.196078%);fill-opacity:1;" d="M 205.953125 94.613281 L 186.941406 94.613281 C 186.28125 94.613281 185.742188 94.078125 185.742188 93.414062 C 185.742188 92.753906 186.28125 92.214844 186.941406 92.214844 L 205.953125 92.214844 C 206.617188 92.214844 207.152344 92.753906 207.152344 93.414062 C 207.152344 94.078125 206.617188 94.613281 205.953125 94.613281 Z M 205.953125 94.613281 "/>
<path style=" stroke:none;fill-rule:nonzero;fill:rgb(24.705882%,23.921569%,33.72549%);fill-opacity:1;" d="M 325.234375 180.492188 C 324.785156 180.160156 324.320312 179.851562 323.847656 179.558594 C 323.5625 179.375 323.273438 179.203125 322.980469 179.035156 C 322.941406 179.011719 322.898438 178.988281 322.859375 178.964844 C 321.394531 178.132812 319.855469 177.441406 318.257812 176.898438 C 316.714844 176.371094 315.121094 175.988281 313.503906 175.757812 C 313.480469 175.75 313.453125 175.746094 313.425781 175.742188 C 312.992188 175.679688 312.550781 175.628906 312.109375 175.59375 C 311.800781 175.558594 311.488281 175.535156 311.175781 175.523438 C 310.777344 175.496094 310.375 175.480469 309.96875 175.476562 C 309.847656 175.472656 309.722656 175.472656 309.601562 175.472656 C 308.292969 175.472656 306.988281 175.566406 305.695312 175.757812 C 305.410156 175.796875 305.128906 175.839844 304.847656 175.886719 C 304.660156 175.925781 304.476562 175.960938 304.292969 175.996094 C 303.527344 176.152344 302.777344 176.335938 302.039062 176.550781 C 301.703125 176.652344 301.371094 176.757812 301.039062 176.867188 C 300.589844 177.015625 300.152344 177.175781 299.714844 177.351562 C 299.328125 177.5 298.949219 177.664062 298.570312 177.832031 C 295.472656 179.226562 292.667969 181.195312 290.300781 183.632812 C 289.363281 184.589844 288.5 185.613281 287.71875 186.699219 C 287.347656 187.214844 286.996094 187.746094 286.660156 188.292969 C 286.042969 189.289062 285.492188 190.324219 285.011719 191.390625 C 284.03125 193.5625 283.347656 195.859375 282.980469 198.210938 C 282.761719 199.605469 282.652344 201.011719 282.652344 202.421875 C 282.652344 202.675781 282.65625 202.933594 282.664062 203.183594 C 282.820312 209.023438 284.882812 214.652344 288.539062 219.207031 C 288.929688 219.703125 289.34375 220.183594 289.773438 220.648438 C 290.199219 221.113281 290.644531 221.5625 291.105469 221.996094 C 291.667969 222.53125 292.25 223.035156 292.855469 223.519531 C 300.40625 229.53125 310.601562 231.03125 319.5625 227.453125 C 320.171875 227.210938 320.769531 226.953125 321.347656 226.664062 C 320.914062 226.191406 320.503906 225.703125 320.117188 225.191406 C 319.535156 225.464844 318.949219 225.710938 318.34375 225.9375 C 309.851562 229.09375 300.3125 227.421875 293.398438 221.5625 C 292.871094 221.117188 292.355469 220.644531 291.867188 220.152344 C 291.320312 219.605469 290.796875 219.03125 290.304688 218.4375 C 289.878906 217.929688 289.472656 217.398438 289.089844 216.855469 C 282.433594 207.429688 283.082031 194.675781 290.664062 185.972656 C 290.886719 185.710938 291.117188 185.460938 291.347656 185.214844 C 291.824219 184.714844 292.316406 184.230469 292.828125 183.773438 C 295.234375 181.601562 298.039062 179.917969 301.082031 178.816406 C 301.113281 178.804688 301.144531 178.796875 301.171875 178.785156 C 301.269531 178.746094 301.367188 178.714844 301.46875 178.679688 C 302.417969 178.355469 303.386719 178.085938 304.367188 177.875 C 304.722656 177.800781 305.082031 177.730469 305.445312 177.671875 C 305.453125 177.671875 305.457031 177.667969 305.464844 177.667969 C 306.480469 177.5 307.507812 177.394531 308.535156 177.351562 C 308.886719 177.335938 309.242188 177.328125 309.601562 177.328125 C 310.039062 177.328125 310.484375 177.339844 310.917969 177.367188 C 311.230469 177.378906 311.546875 177.402344 311.855469 177.433594 C 312.128906 177.457031 312.398438 177.484375 312.667969 177.519531 C 315.785156 177.898438 318.800781 178.863281 321.554688 180.367188 C 322.265625 180.753906 322.957031 181.171875 323.628906 181.628906 C 324.164062 181.992188 324.6875 182.375 325.191406 182.777344 C 325.710938 182.394531 326.25 182.035156 326.804688 181.699219 C 326.296875 181.277344 325.773438 180.867188 325.234375 180.492188 Z M 325.234375 180.492188 "/>
<path style=" stroke:none;fill-rule:nonzero;fill:rgb(24.705882%,23.921569%,33.72549%);fill-opacity:1;" d="M 313.324219 140.195312 L 311.867188 164.9375 L 283.277344 164.9375 C 280.796875 164.914062 278.398438 165.820312 276.554688 167.480469 C 274.898438 168.992188 273.871094 171.070312 273.671875 173.300781 L 276.933594 174.464844 C 276.925781 174.089844 276.964844 173.714844 277.046875 173.347656 C 277.273438 172.367188 277.898438 170.578125 279.582031 169.578125 C 280.320312 169.15625 281.160156 168.941406 282.007812 168.957031 L 314.414062 168.957031 L 316.234375 143.125 L 327.148438 143.125 L 327.148438 140.195312 Z M 313.324219 140.195312 "/>
<path style=" stroke:none;fill-rule:nonzero;fill:rgb(18.431373%,18.039216%,25.490196%);fill-opacity:1;" d="M 341.703125 152.574219 L 341.695312 152.773438 L 340.808594 176.121094 L 340.734375 177.976562 C 340.476562 177.96875 340.214844 177.964844 339.953125 177.964844 C 339.441406 177.964844 338.933594 177.980469 338.425781 178.011719 C 335.957031 178.15625 333.523438 178.667969 331.203125 179.535156 C 330.605469 179.761719 330.011719 180.007812 329.4375 180.277344 C 328.53125 180.695312 327.652344 181.171875 326.804688 181.699219 C 326.25 182.035156 325.710938 182.394531 325.191406 182.777344 C 322.976562 184.390625 321.042969 186.359375 319.460938 188.597656 C 318.90625 189.375 318.398438 190.1875 317.945312 191.027344 L 315.828125 191.046875 L 301.378906 191.207031 L 292.992188 191.304688 L 292.988281 191.304688 L 287.074219 191.367188 L 285.011719 191.390625 L 284.863281 191.390625 L 282.980469 191.410156 L 278.910156 191.460938 L 277.019531 191.480469 L 274.394531 191.507812 L 276.03125 176.042969 L 290.300781 176.832031 L 292.828125 176.972656 L 293.492188 177.007812 L 299.714844 177.351562 L 304.355469 177.609375 L 305.464844 177.667969 L 310.835938 177.964844 L 310.917969 177.367188 L 311.078125 176.214844 L 311.175781 175.523438 L 311.691406 171.800781 L 311.855469 170.632812 L 312.085938 168.957031 L 312.085938 168.945312 L 312.109375 168.792969 L 312.644531 164.9375 L 313.078125 161.820312 L 313.484375 158.921875 L 313.484375 158.90625 L 314.128906 154.246094 L 314.234375 153.484375 L 315.507812 153.441406 L 320.453125 153.28125 L 322.636719 153.207031 L 329.503906 152.980469 L 339.082031 152.664062 L 339.085938 152.664062 L 339.878906 152.636719 L 340.066406 152.628906 L 340.070312 152.628906 Z M 341.703125 152.574219 "/>
<path style=" stroke:none;fill-rule:nonzero;fill:rgb(24.705882%,23.921569%,33.72549%);fill-opacity:1;" d="M 344.90625 203.050781 C 344.90625 205.789062 342.6875 208.007812 339.953125 208.007812 C 337.214844 208.007812 334.996094 205.789062 334.996094 203.050781 C 334.996094 200.316406 337.214844 198.097656 339.953125 198.097656 C 342.6875 198.097656 344.90625 200.316406 344.90625 203.050781 Z M 344.90625 203.050781 "/>
<path style=" stroke:none;fill-rule:nonzero;fill:rgb(24.705882%,23.921569%,33.72549%);fill-opacity:1;" d="M 310.335938 203.167969 C 310.335938 205.046875 308.808594 206.574219 306.925781 206.574219 C 305.046875 206.574219 303.519531 205.046875 303.519531 203.167969 C 303.519531 201.285156 305.046875 199.761719 306.925781 199.761719 C 308.808594 199.761719 310.335938 201.285156 310.335938 203.167969 Z M 310.335938 203.167969 "/>
<path style=" stroke:none;fill-rule:nonzero;fill:rgb(24.705882%,23.921569%,33.72549%);fill-opacity:1;" d="M 329.984375 178.019531 C 329.378906 178.257812 328.785156 178.519531 328.199219 178.804688 C 327.175781 179.304688 326.1875 179.867188 325.234375 180.492188 C 324.683594 180.847656 324.148438 181.226562 323.628906 181.628906 C 321.101562 183.558594 318.929688 185.914062 317.21875 188.597656 L 319.460938 188.597656 C 321.042969 186.359375 322.976562 184.390625 325.191406 182.777344 C 325.710938 182.394531 326.25 182.035156 326.804688 181.699219 C 327.652344 181.171875 328.53125 180.695312 329.4375 180.277344 C 330.011719 180.007812 330.605469 179.761719 331.203125 179.535156 C 333.523438 178.667969 335.957031 178.15625 338.425781 178.011719 L 338.425781 176.148438 C 335.53125 176.308594 332.675781 176.941406 329.984375 178.019531 Z M 315.277344 192.230469 L 317.320312 192.230469 C 317.515625 191.824219 317.722656 191.421875 317.945312 191.027344 L 315.828125 191.046875 C 315.632812 191.4375 315.449219 191.832031 315.277344 192.230469 Z M 341.703125 176.164062 C 341.40625 176.140625 341.109375 176.128906 340.808594 176.121094 C 340.523438 176.109375 340.238281 176.105469 339.953125 176.105469 C 339.441406 176.105469 338.929688 176.121094 338.425781 176.148438 C 335.53125 176.308594 332.675781 176.941406 329.984375 178.019531 C 329.378906 178.257812 328.785156 178.519531 328.199219 178.804688 C 327.175781 179.304688 326.1875 179.867188 325.234375 180.492188 C 324.683594 180.847656 324.148438 181.226562 323.628906 181.628906 C 320.34375 184.132812 317.675781 187.355469 315.828125 191.046875 C 315.632812 191.4375 315.449219 191.832031 315.277344 192.230469 C 314.683594 193.570312 314.203125 194.957031 313.84375 196.375 C 313.605469 197.296875 313.417969 198.226562 313.285156 199.167969 C 313.164062 199.992188 313.082031 200.824219 313.039062 201.667969 C 313.015625 202.128906 313.003906 202.589844 313.003906 203.050781 C 313.003906 204.074219 313.0625 205.09375 313.175781 206.109375 C 313.714844 210.832031 315.496094 215.328125 318.34375 219.136719 C 318.730469 219.65625 319.140625 220.164062 319.5625 220.652344 C 327.550781 229.90625 340.761719 232.621094 351.753906 227.269531 C 362.742188 221.921875 368.75 209.84375 366.394531 197.851562 C 364.035156 185.859375 353.898438 176.957031 341.703125 176.164062 Z M 339.953125 228.140625 C 332.855469 228.144531 326.09375 225.136719 321.347656 219.863281 C 320.914062 219.390625 320.503906 218.902344 320.117188 218.390625 C 316.890625 214.242188 315.058594 209.183594 314.878906 203.933594 C 314.867188 203.640625 314.863281 203.347656 314.863281 203.050781 C 314.859375 199.308594 315.699219 195.609375 317.320312 192.230469 C 317.515625 191.824219 317.722656 191.421875 317.945312 191.027344 C 318.398438 190.1875 318.90625 189.375 319.460938 188.597656 C 321.042969 186.359375 322.976562 184.390625 325.191406 182.777344 C 325.710938 182.394531 326.25 182.035156 326.804688 181.699219 C 327.652344 181.171875 328.53125 180.695312 329.4375 180.277344 C 330.011719 180.007812 330.605469 179.761719 331.203125 179.535156 C 333.523438 178.667969 335.957031 178.15625 338.425781 178.011719 C 338.929688 177.980469 339.441406 177.964844 339.953125 177.964844 C 340.214844 177.964844 340.476562 177.96875 340.734375 177.976562 C 341.058594 177.988281 341.382812 178.003906 341.703125 178.023438 C 355.1875 178.964844 365.5 190.417969 365.027344 203.929688 C 364.554688 217.4375 353.46875 228.140625 339.953125 228.140625 Z M 314.878906 203.933594 C 314.867188 203.640625 314.863281 203.347656 314.863281 203.050781 C 314.859375 199.308594 315.699219 195.609375 317.320312 192.230469 L 315.277344 192.230469 C 314.683594 193.570312 314.203125 194.957031 313.84375 196.375 C 313.90625 196.636719 313.9375 196.902344 313.9375 197.167969 C 313.9375 197.886719 313.707031 198.585938 313.285156 199.167969 C 313.164062 199.992188 313.082031 200.824219 313.039062 201.667969 C 313.015625 202.128906 313.003906 202.589844 313.003906 203.050781 C 313.003906 204.074219 313.0625 205.09375 313.175781 206.109375 C 313.714844 210.832031 315.496094 215.328125 318.34375 219.136719 C 318.949219 218.910156 319.535156 218.664062 320.117188 218.390625 C 316.890625 214.242188 315.058594 209.183594 314.878906 203.933594 Z M 314.878906 203.933594 "/>
<use xlink:href="#surface5" mask="url(#mask0)"/>
<use xlink:href="#surface8" mask="url(#mask1)"/>
<path style=" stroke:none;fill-rule:nonzero;fill:rgb(100%,71.764706%,71.764706%);fill-opacity:1;" d="M 269.636719 216.007812 L 265.839844 216.003906 L 264.03125 201.359375 L 269.636719 201.359375 Z M 269.636719 216.007812 "/>
<path style=" stroke:none;fill-rule:nonzero;fill:rgb(18.431373%,18.039216%,25.490196%);fill-opacity:1;" d="M 269.636719 214.769531 L 265.6875 214.765625 L 263.128906 214.765625 C 260.492188 214.761719 258.359375 216.898438 258.359375 219.53125 L 258.359375 219.6875 L 270.605469 219.6875 L 270.605469 214.769531 Z M 269.636719 214.769531 "/>
<path style=" stroke:none;fill-rule:nonzero;fill:rgb(100%,71.764706%,71.764706%);fill-opacity:1;" d="M 282.210938 217.832031 L 278.414062 217.753906 L 276.90625 203.074219 L 282.511719 203.1875 Z M 282.210938 217.832031 "/>
<path style=" stroke:none;fill-rule:nonzero;fill:rgb(18.431373%,18.039216%,25.490196%);fill-opacity:1;" d="M 282.234375 216.59375 L 278.285156 216.511719 L 275.726562 216.460938 C 274.464844 216.429688 273.238281 216.90625 272.328125 217.78125 C 271.414062 218.65625 270.886719 219.859375 270.863281 221.125 L 270.859375 221.28125 L 283.105469 221.53125 L 283.125 220.519531 L 283.203125 216.613281 Z M 282.234375 216.59375 "/>
<path style=" stroke:none;fill-rule:nonzero;fill:rgb(18.431373%,18.039216%,25.490196%);fill-opacity:1;" d="M 295.4375 165.363281 L 273.496094 172.597656 C 270.835938 173.253906 268.792969 175.386719 268.253906 178.070312 L 261.625 210.953125 L 272.25 211.117188 L 278.964844 183.484375 L 293.460938 177.554688 L 282.351562 183.984375 C 281.351562 184.777344 280.574219 185.824219 280.101562 187.011719 L 273.566406 211.414062 L 285.28125 211.414062 L 291.941406 191.902344 L 320.84375 175.425781 Z M 295.4375 165.363281 "/>
<path style=" stroke:none;fill-rule:nonzero;fill:rgb(79.607843%,79.607843%,79.607843%);fill-opacity:1;" d="M 317.566406 131.035156 L 303.679688 132.722656 C 303.679688 132.722656 295.523438 136.378906 295.523438 138.234375 C 295.523438 140.09375 292.28125 166.734375 292.28125 166.734375 C 292.28125 166.734375 289.394531 168.515625 300.667969 171.652344 C 311.941406 174.785156 313.964844 179.113281 313.964844 179.113281 L 314.824219 182.730469 L 327.738281 178.191406 L 329.90625 147.21875 L 332.382812 135.15625 L 324.023438 130.492188 Z M 317.566406 131.035156 "/>
<path style=" stroke:none;fill-rule:nonzero;fill:rgb(100%,71.764706%,71.764706%);fill-opacity:1;" d="M 321.539062 118.40625 C 321.539062 123.890625 317.09375 128.335938 311.609375 128.335938 C 306.125 128.335938 301.679688 123.890625 301.679688 118.40625 C 301.679688 112.925781 306.125 108.480469 311.609375 108.480469 C 317.09375 108.480469 321.539062 112.925781 321.539062 118.40625 Z M 321.539062 118.40625 "/>
<path style=" stroke:none;fill-rule:nonzero;fill:rgb(18.431373%,18.039216%,25.490196%);fill-opacity:1;" d="M 318.414062 108.214844 L 318.613281 107.152344 L 315.953125 106.65625 C 315.953125 106.65625 312.191406 103.210938 307.875 105.710938 C 303.5625 108.207031 301.671875 109.507812 301.671875 109.507812 L 299.679688 111.339844 L 301.175781 112.167969 L 299.285156 113.464844 L 300.878906 113.761719 L 299.519531 115.160156 L 301.761719 119.703125 C 301.761719 119.703125 302.179688 115.652344 305.371094 116.246094 C 308.5625 116.839844 313.074219 113.273438 313.074219 113.273438 L 319.964844 120.605469 C 319.964844 120.605469 320.023438 117.332031 321.886719 117.667969 C 321.886719 117.667969 324.164062 109.832031 318.414062 108.214844 Z M 318.414062 108.214844 "/>
<path style=" stroke:none;fill-rule:nonzero;fill:rgb(100%,71.764706%,71.764706%);fill-opacity:1;" d="M 320.964844 152.222656 C 321.648438 151.203125 322.746094 150.535156 323.96875 150.402344 C 325.191406 150.269531 326.410156 150.683594 327.292969 151.535156 L 340.4375 144.832031 L 339.585938 152.453125 L 327.234375 157.648438 C 325.671875 159.074219 323.289062 159.105469 321.691406 157.722656 C 320.089844 156.335938 319.777344 153.976562 320.964844 152.222656 Z M 320.964844 152.222656 "/>
<path style=" stroke:none;fill-rule:nonzero;fill:rgb(79.607843%,79.607843%,79.607843%);fill-opacity:1;" d="M 329.15625 135.742188 L 332.382812 135.15625 L 349.585938 142.851562 L 350.757812 150.390625 L 340.4375 153.105469 L 335.039062 146.160156 L 327.136719 148.355469 L 322.472656 141.332031 Z M 329.15625 135.742188 "/>
<path style=" stroke:none;fill-rule:nonzero;fill:rgb(24.705882%,23.921569%,33.72549%);fill-opacity:1;" d="M 313.417969 161.808594 L 313.816406 144.375 C 313.824219 143.925781 314.195312 143.570312 314.644531 143.582031 L 322.039062 143.75 C 322.488281 143.761719 322.84375 144.132812 322.832031 144.582031 L 322.433594 162.011719 C 322.421875 162.460938 322.050781 162.816406 321.605469 162.804688 L 314.210938 162.636719 C 313.761719 162.628906 313.40625 162.253906 313.417969 161.808594 Z M 313.417969 161.808594 "/>
<path style=" stroke:none;fill-rule:nonzero;fill:rgb(100%,100%,100%);fill-opacity:1;" d="M 319.761719 149.277344 C 319.761719 150.058594 319.125 150.695312 318.34375 150.695312 C 317.558594 150.695312 316.925781 150.058594 316.925781 149.277344 C 316.925781 148.492188 317.558594 147.859375 318.34375 147.859375 C 319.125 147.859375 319.761719 148.492188 319.761719 149.277344 Z M 319.761719 149.277344 "/>
<path style=" stroke:none;fill-rule:nonzero;fill:rgb(100%,71.764706%,71.764706%);fill-opacity:1;" d="M 314.078125 154.222656 C 313.003906 153.75 311.777344 153.777344 310.726562 154.296875 C 309.675781 154.8125 308.90625 155.773438 308.628906 156.910156 L 294.617188 158.246094 L 299.207031 163.945312 L 311.808594 161.800781 C 313.796875 162.148438 315.730469 160.953125 316.308594 159.019531 C 316.886719 157.085938 315.929688 155.027344 314.078125 154.222656 Z M 314.078125 154.222656 "/>
<path style=" stroke:none;fill-rule:nonzero;fill:rgb(79.607843%,79.607843%,79.607843%);fill-opacity:1;" d="M 299.832031 140.890625 L 299.097656 154.53125 L 301.851562 155.402344 L 300.667969 164.910156 L 293.597656 165.976562 L 296.546875 141.359375 Z M 299.832031 140.890625 "/>
<path style=" stroke:none;fill-rule:nonzero;fill:rgb(24.705882%,23.921569%,33.72549%);fill-opacity:1;" d="M 340.613281 140.191406 L 340.335938 144.882812 L 340.226562 146.714844 L 340.226562 146.738281 L 339.890625 152.398438 L 339.878906 152.636719 L 339.15625 164.9375 L 310.464844 164.9375 C 308.015625 164.9375 305.65625 165.84375 303.839844 167.480469 C 303.539062 167.753906 303.261719 168.046875 303 168.355469 C 302.835938 168.546875 302.683594 168.75 302.542969 168.957031 C 302.359375 169.210938 302.191406 169.476562 302.039062 169.753906 C 301.679688 170.398438 301.40625 171.089844 301.21875 171.808594 C 301.199219 171.867188 301.183594 171.925781 301.171875 171.984375 C 301.0625 172.417969 300.992188 172.859375 300.953125 173.304688 L 301.039062 176.867188 L 301.050781 177.425781 L 301.082031 178.816406 L 301.269531 186.585938 L 301.378906 191.207031 L 301.484375 195.5625 C 298.855469 195.5 294.339844 196.890625 291.726562 206.21875 C 291.152344 208.277344 290.6875 210.070312 290.304688 211.636719 C 290.109375 212.433594 289.929688 213.167969 289.773438 213.847656 C 289.503906 215.007812 289.285156 216.003906 289.089844 216.855469 C 288.878906 217.816406 288.703125 218.589844 288.539062 219.207031 C 287.96875 221.3125 287.511719 221.578125 286.066406 221.035156 C 285.105469 220.773438 284.117188 220.601562 283.125 220.519531 C 280.160156 220.167969 275.570312 219.84375 271.152344 219.585938 C 270.96875 219.574219 270.789062 219.5625 270.605469 219.550781 C 264.296875 219.183594 258.492188 218.953125 258.492188 218.953125 L 258.492188 222.585938 L 286.066406 225.0625 C 286.066406 225.0625 288.910156 226.339844 291.105469 221.996094 C 291.402344 221.402344 291.660156 220.785156 291.867188 220.152344 C 292.007812 219.757812 292.140625 219.328125 292.261719 218.867188 C 292.460938 218.15625 292.65625 217.441406 292.855469 216.71875 C 293.035156 216.066406 293.21875 215.410156 293.398438 214.765625 C 294.585938 210.492188 295.730469 206.480469 296.402344 204.171875 C 296.921875 202.28125 298.253906 200.71875 300.035156 199.90625 C 300.652344 199.617188 301.324219 199.472656 302.003906 199.480469 L 305.257812 199.335938 L 304.929688 192.230469 L 317.320312 192.230469 C 317.515625 191.824219 317.722656 191.421875 317.945312 191.027344 C 318.398438 190.1875 318.90625 189.375 319.460938 188.597656 L 304.792969 188.597656 L 304.636719 184.664062 L 304.367188 177.875 L 304.355469 177.609375 L 304.292969 175.996094 L 304.230469 174.464844 C 304.222656 174.085938 304.261719 173.707031 304.34375 173.335938 C 304.375 173.195312 304.414062 173.035156 304.46875 172.867188 C 304.671875 172.152344 305.003906 171.476562 305.445312 170.871094 C 305.753906 170.445312 306.132812 170.074219 306.558594 169.769531 C 306.660156 169.695312 306.765625 169.625 306.875 169.5625 C 307.5 169.210938 308.191406 169.003906 308.90625 168.957031 C 309.039062 168.945312 309.167969 168.941406 309.300781 168.945312 L 338.425781 168.945312 L 338.425781 178.011719 C 338.929688 177.980469 339.441406 177.964844 339.953125 177.964844 C 340.214844 177.964844 340.476562 177.96875 340.734375 177.976562 C 341.058594 177.988281 341.382812 178.003906 341.703125 178.023438 L 341.703125 168.855469 L 342.855469 152.46875 L 343.515625 143.113281 L 354.429688 143.113281 L 354.4375 140.191406 Z M 340.613281 140.191406 "/>
<path style=" stroke:none;fill-rule:nonzero;fill:rgb(62.352941%,38.039216%,41.568627%);fill-opacity:1;" d="M 75.484375 150.632812 C 76.621094 150.066406 77.449219 149.023438 77.746094 147.789062 C 78.042969 146.550781 77.777344 145.246094 77.019531 144.226562 L 80.234375 112.808594 L 73.289062 112.808594 L 70.734375 143.484375 C 69.066406 144.902344 68.722656 147.34375 69.933594 149.167969 C 71.144531 150.992188 73.53125 151.621094 75.484375 150.632812 Z M 75.484375 150.632812 "/>
<path style=" stroke:none;fill-rule:nonzero;fill:rgb(62.352941%,38.039216%,41.568627%);fill-opacity:1;" d="M 91.683594 85.648438 C 91.683594 91.074219 87.285156 95.472656 81.859375 95.472656 C 76.433594 95.472656 72.035156 91.074219 72.035156 85.648438 C 72.035156 80.222656 76.433594 75.824219 81.859375 75.824219 C 87.285156 75.824219 91.683594 80.222656 91.683594 85.648438 Z M 91.683594 85.648438 "/>
<path style=" stroke:none;fill-rule:nonzero;fill:rgb(25.098039%,41.960784%,90.196078%);fill-opacity:1;" d="M 83.707031 131.105469 C 82.898438 131.105469 82.191406 130.566406 81.976562 129.785156 C 81.191406 126.925781 79.140625 122.089844 75.890625 115.414062 C 74.40625 112.363281 74.296875 108.820312 75.585938 105.679688 C 76.878906 102.542969 79.449219 100.101562 82.652344 98.976562 C 85.683594 97.90625 89.015625 98.109375 91.898438 99.539062 C 94.777344 100.964844 96.957031 103.496094 97.941406 106.558594 C 100.460938 114.460938 100.339844 122.925781 100.171875 126.195312 C 100.128906 127.007812 99.550781 127.6875 98.757812 127.863281 L 84.09375 131.0625 C 83.96875 131.09375 83.839844 131.105469 83.707031 131.105469 Z M 83.707031 131.105469 "/>
<path style=" stroke:none;fill-rule:nonzero;fill:rgb(62.352941%,38.039216%,41.568627%);fill-opacity:1;" d="M 97.90625 224.398438 L 102.8125 224.398438 L 105.144531 205.480469 L 97.90625 205.480469 Z M 97.90625 224.398438 "/>
<path style=" stroke:none;fill-rule:nonzero;fill:rgb(18.431373%,18.039216%,25.490196%);fill-opacity:1;" d="M 96.65625 229.152344 L 96.65625 222.796875 L 106.3125 222.796875 C 109.714844 222.796875 112.46875 225.550781 112.46875 228.949219 L 112.46875 229.148438 Z M 96.65625 229.152344 "/>
<path style=" stroke:none;fill-rule:nonzero;fill:rgb(62.352941%,38.039216%,41.568627%);fill-opacity:1;" d="M 48.871094 218.042969 L 53.167969 220.40625 L 64.324219 204.953125 L 57.984375 201.464844 Z M 48.871094 218.042969 "/>
<path style=" stroke:none;fill-rule:nonzero;fill:rgb(18.431373%,18.039216%,25.490196%);fill-opacity:1;" d="M 59.339844 229.222656 L 45.484375 221.605469 L 48.546875 216.035156 L 57.007812 220.6875 C 59.984375 222.328125 61.070312 226.066406 59.4375 229.046875 Z M 59.339844 229.222656 "/>
<path style=" stroke:none;fill-rule:nonzero;fill:rgb(18.431373%,18.039216%,25.490196%);fill-opacity:1;" d="M 97.679688 213.898438 C 96.773438 213.898438 96.011719 213.226562 95.894531 212.328125 L 89.761719 165.070312 C 89.707031 164.640625 89.382812 164.296875 88.957031 164.214844 C 88.53125 164.136719 88.101562 164.335938 87.894531 164.714844 L 62.335938 211.089844 C 61.898438 211.871094 60.957031 212.21875 60.117188 211.902344 L 54.546875 209.78125 C 54.09375 209.605469 53.730469 209.257812 53.535156 208.816406 C 53.34375 208.371094 53.339844 207.867188 53.519531 207.417969 L 71.226562 163.925781 C 71.269531 163.8125 71.300781 163.699219 71.316406 163.578125 C 73.714844 145.019531 79.816406 135.578125 81.628906 133.128906 C 81.898438 132.761719 81.972656 132.289062 81.828125 131.859375 L 81.578125 131.113281 C 81.375 130.507812 81.507812 129.84375 81.925781 129.359375 C 88.457031 121.921875 99.84375 125.980469 99.957031 126.023438 L 100.015625 126.042969 L 100.050781 126.09375 C 112.816406 143.601562 108.097656 200.46875 107.019531 211.691406 C 106.9375 212.5625 106.238281 213.246094 105.367188 213.3125 L 97.816406 213.894531 C 97.769531 213.898438 97.722656 213.898438 97.679688 213.898438 Z M 97.679688 213.898438 "/>
<path style=" stroke:none;fill-rule:nonzero;fill:rgb(62.352941%,38.039216%,41.568627%);fill-opacity:1;" d="M 120.050781 97.058594 C 120.003906 97.277344 119.972656 97.496094 119.957031 97.714844 L 102.773438 107.628906 L 98.597656 105.222656 L 94.144531 111.054688 L 101.125 116.027344 C 102.28125 116.855469 103.847656 116.816406 104.964844 115.933594 L 122.683594 101.957031 C 124.320312 102.5625 126.160156 102.09375 127.308594 100.773438 C 128.453125 99.457031 128.664062 97.570312 127.839844 96.03125 C 127.011719 94.492188 125.320312 93.628906 123.589844 93.855469 C 121.859375 94.085938 120.449219 95.359375 120.050781 97.058594 Z M 120.050781 97.058594 "/>
<path style=" stroke:none;fill-rule:nonzero;fill:rgb(25.098039%,41.960784%,90.196078%);fill-opacity:1;" d="M 102.199219 108.097656 L 96.644531 115.296875 C 96.324219 115.710938 95.839844 115.964844 95.320312 115.992188 C 94.796875 116.023438 94.289062 115.820312 93.925781 115.445312 L 87.636719 108.917969 C 85.460938 107.222656 85.070312 104.085938 86.761719 101.90625 C 88.453125 99.730469 91.585938 99.332031 93.769531 101.019531 L 101.652344 105.429688 C 102.109375 105.683594 102.433594 106.125 102.539062 106.636719 C 102.640625 107.152344 102.519531 107.683594 102.199219 108.097656 Z M 102.199219 108.097656 "/>
<path style=" stroke:none;fill-rule:nonzero;fill:rgb(25.098039%,41.960784%,90.196078%);fill-opacity:1;" d="M 80.675781 120.601562 L 71.726562 118.988281 C 71.214844 118.894531 70.765625 118.582031 70.5 118.132812 C 70.230469 117.679688 70.175781 117.136719 70.34375 116.640625 L 73.242188 108.054688 C 73.746094 105.34375 76.351562 103.554688 79.058594 104.050781 C 81.769531 104.550781 83.566406 107.148438 83.078125 109.859375 L 82.792969 118.890625 C 82.777344 119.410156 82.535156 119.902344 82.125 120.230469 C 81.71875 120.558594 81.191406 120.695312 80.675781 120.601562 Z M 80.675781 120.601562 "/>
<path style=" stroke:none;fill-rule:nonzero;fill:rgb(18.431373%,18.039216%,25.490196%);fill-opacity:1;" d="M 83.414062 83.386719 C 85.9375 85.117188 89.253906 86.894531 91.832031 85.050781 C 93.527344 83.84375 94.058594 81.605469 93.375 79.640625 C 92.136719 76.109375 88.746094 74.554688 85.5 73.363281 C 81.285156 71.816406 76.691406 70.582031 72.335938 71.691406 C 67.984375 72.800781 64.132812 77.019531 64.921875 81.441406 C 65.554688 85 68.910156 87.960938 68.433594 91.542969 C 67.953125 95.144531 63.898438 97.042969 60.320312 97.6875 C 56.742188 98.332031 52.734375 98.539062 50.164062 101.109375 C 46.882812 104.390625 47.703125 110.25 50.789062 113.714844 C 53.875 117.175781 58.535156 118.746094 63.050781 119.8125 C 69.03125 121.226562 75.503906 121.96875 81.183594 119.625 C 86.863281 117.277344 91.285156 110.960938 89.640625 105.039062 C 88.945312 102.539062 87.308594 100.425781 85.722656 98.367188 C 84.140625 96.308594 82.539062 94.15625 81.933594 91.628906 C 81.433594 89.527344 81.804688 87.082031 83.199219 85.503906 C 83.722656 84.9375 83.816406 84.101562 83.4375 83.429688 Z M 83.414062 83.386719 "/>
<path style=" stroke:none;fill-rule:nonzero;fill:rgb(79.607843%,79.607843%,79.607843%);fill-opacity:1;" d="M 152.800781 230 L 0.398438 230 C 0.179688 230 0 229.820312 0 229.601562 C 0 229.378906 0.179688 229.199219 0.398438 229.199219 L 152.800781 229.199219 C 153.019531 229.199219 153.199219 229.378906 153.199219 229.601562 C 153.199219 229.820312 153.019531 230 152.800781 230 Z M 152.800781 230 "/>
<path style=" stroke:none;fill-rule:nonzero;fill:rgb(79.607843%,79.607843%,79.607843%);fill-opacity:1;" d="M 399.601562 230 L 247.199219 230 C 246.980469 230 246.800781 229.820312 246.800781 229.601562 C 246.800781 229.378906 246.980469 229.199219 247.199219 229.199219 L 399.601562 229.199219 C 399.820312 229.199219 400 229.378906 400 229.601562 C 400 229.820312 399.820312 230 399.601562 230 Z M 399.601562 230 "/>
</g>
</svg>
