<?xml version="1.0" encoding="UTF-8"?>
<svg xmlns="http://www.w3.org/2000/svg" xmlns:xlink="http://www.w3.org/1999/xlink" width="370pt" height="218pt" viewBox="0 0 370 218" version="1.1">
<defs>
<filter id="alpha" filterUnits="objectBoundingBox" x="0%" y="0%" width="100%" height="100%">
  <feColorMatrix type="matrix" in="SourceGraphic" values="0 0 0 0 1 0 0 0 0 1 0 0 0 0 1 0 0 0 1 0"/>
</filter>
<mask id="mask0">
  <g filter="url(#alpha)">
<rect x="0" y="0" width="370" height="218" style="fill:rgb(0%,0%,0%);fill-opacity:0.101961;stroke:none;"/>
  </g>
</mask>
<clipPath id="clip1">
  <rect x="0" y="0" width="370" height="218"/>
</clipPath>
<g id="surface5" clip-path="url(#clip1)">
<path style=" stroke:none;fill-rule:nonzero;fill:rgb(0%,0%,0%);fill-opacity:1;" d="M 142.953125 207.839844 C 142.757812 208.617188 141.980469 212.3125 141.980469 213.480469 C 141.980469 214.644531 142.757812 216.785156 139.457031 217.5625 C 136.242188 218.320312 136.710938 216.308594 136.199219 215.128906 C 136.757812 213.675781 138.109375 210.558594 139.070312 207.839844 C 139.914062 205.433594 141.996094 206.21875 143.066406 206.828125 C 143.074219 207.167969 143.035156 207.507812 142.953125 207.839844 Z M 142.953125 207.839844 "/>
</g>
<mask id="mask1">
  <g filter="url(#alpha)">
<rect x="0" y="0" width="370" height="218" style="fill:rgb(0%,0%,0%);fill-opacity:0.2;stroke:none;"/>
  </g>
</mask>
<clipPath id="clip2">
  <rect x="0" y="0" width="370" height="218"/>
</clipPath>
<g id="surface8" clip-path="url(#clip2)">
<path style=" stroke:none;fill-rule:nonzero;fill:rgb(0%,0%,0%);fill-opacity:1;" d="M 338.746094 217.644531 C 333.921875 217.683594 327.53125 216.890625 326.246094 216.105469 C 325.265625 215.507812 324.875 213.363281 324.746094 212.375 C 324.65625 212.378906 324.601562 212.382812 324.601562 212.382812 C 324.601562 212.382812 324.875 215.835938 326.160156 216.621094 C 327.445312 217.40625 333.835938 218.195312 338.660156 218.15625 C 340.054688 218.148438 340.535156 217.648438 340.507812 216.914062 C 340.316406 217.359375 339.785156 217.636719 338.746094 217.644531 Z M 338.746094 217.644531 "/>
</g>
</defs>
<g id="surface1">
<path style=" stroke:none;fill-rule:nonzero;fill:rgb(37.647059%,36.470588%,50.980392%);fill-opacity:1;" d="M 149.824219 217.636719 L 147.628906 217.636719 C 146.625 217.636719 145.8125 216.820312 145.8125 215.816406 L 145.8125 209.601562 L 149.824219 209.601562 L 151.433594 215.519531 C 151.570312 216.023438 151.464844 216.5625 151.148438 216.976562 C 150.835938 217.390625 150.34375 217.636719 149.824219 217.636719 Z M 149.824219 217.636719 "/>
<path style=" stroke:none;fill-rule:nonzero;fill:rgb(94.901961%,94.901961%,94.901961%);fill-opacity:1;" d="M 33.800781 68.46875 L 282.976562 68.46875 C 285.640625 68.46875 287.796875 70.628906 287.796875 73.296875 L 287.796875 162.230469 C 287.796875 164.898438 285.640625 167.058594 282.976562 167.058594 L 33.800781 167.058594 C 31.136719 167.058594 28.980469 164.898438 28.980469 162.230469 L 28.980469 73.296875 C 28.980469 70.628906 31.136719 68.46875 33.800781 68.46875 Z M 33.800781 68.46875 "/>
<path style="fill:none;stroke-width:1;stroke-linecap:butt;stroke-linejoin:miter;stroke:rgb(24.705882%,23.921569%,33.72549%);stroke-opacity:1;stroke-miterlimit:10;" d="M 16.137986 0.502777 L 950.865973 0.502777 C 958.399177 0.502777 964.496463 6.610988 964.496463 14.141951 L 964.496463 509.859052 C 964.496463 517.390016 958.399177 523.498226 950.865973 523.498226 L 16.137986 523.498226 C 8.604783 523.498226 2.49678 517.390016 2.49678 509.859052 L 2.49678 14.141951 C 2.49678 6.610988 8.604783 0.502777 16.137986 0.502777 Z M 16.137986 0.502777 " transform="matrix(0.364532,0,0,0.365159,0,0)"/>
<path style="fill:none;stroke-width:1;stroke-linecap:butt;stroke-linejoin:miter;stroke:rgb(24.705882%,23.921569%,33.72549%);stroke-opacity:1;stroke-miterlimit:10;" d="M 0 37.034368 L 961.999683 37.034368 " transform="matrix(0.364532,0,0,0.365159,0,0)"/>
<path style="fill:none;stroke-width:1;stroke-linecap:butt;stroke-linejoin:miter;stroke:rgb(24.705882%,23.921569%,33.72549%);stroke-opacity:1;stroke-miterlimit:10;" d="M 0 100.501989 L 961.999683 100.501989 " transform="matrix(0.364532,0,0,0.365159,0,0)"/>
<path style=" stroke:none;fill-rule:nonzero;fill:rgb(97.254902%,41.960784%,45.882353%);fill-opacity:1;" d="M 12.578125 8.214844 C 12.578125 10.234375 10.945312 11.867188 8.929688 11.867188 C 6.917969 11.867188 5.285156 10.234375 5.285156 8.214844 C 5.285156 6.199219 6.917969 4.566406 8.929688 4.566406 C 10.945312 4.566406 12.578125 6.199219 12.578125 8.214844 Z M 12.578125 8.214844 "/>
<path style=" stroke:none;fill-rule:nonzero;fill:rgb(98.039216%,82.745098%,45.882353%);fill-opacity:1;" d="M 23.875 8.214844 C 23.875 10.234375 22.246094 11.867188 20.230469 11.867188 C 18.21875 11.867188 16.585938 10.234375 16.585938 8.214844 C 16.585938 6.199219 18.21875 4.566406 20.230469 4.566406 C 22.246094 4.566406 23.875 6.199219 23.875 8.214844 Z M 23.875 8.214844 "/>
<path style=" stroke:none;fill-rule:nonzero;fill:rgb(54.509804%,80%,33.333333%);fill-opacity:1;" d="M 35.175781 8.214844 C 35.175781 10.234375 33.546875 11.867188 31.53125 11.867188 C 29.519531 11.867188 27.886719 10.234375 27.886719 8.214844 C 27.886719 6.199219 29.519531 4.566406 31.53125 4.566406 C 33.546875 4.566406 35.175781 6.199219 35.175781 8.214844 Z M 35.175781 8.214844 "/>
<path style="fill:none;stroke-width:1;stroke-linecap:butt;stroke-linejoin:miter;stroke:rgb(24.705882%,23.921569%,33.72549%);stroke-opacity:1;stroke-miterlimit:10;" d="M 37.505279 18.495789 C 37.505279 24.02634 33.026077 28.49785 27.496727 28.49785 C 21.978093 28.49785 17.498891 24.02634 17.498891 18.495789 C 17.498891 12.975935 21.978093 8.504426 27.496727 8.504426 C 33.026077 8.504426 37.505279 12.975935 37.505279 18.495789 Z M 37.505279 18.495789 " transform="matrix(0.364532,0,0,0.365159,0,0)"/>
<path style="fill:none;stroke-width:1;stroke-linecap:butt;stroke-linejoin:miter;stroke:rgb(24.705882%,23.921569%,33.72549%);stroke-opacity:1;stroke-miterlimit:10;" d="M 68.495355 18.495789 C 68.495355 24.02634 64.026869 28.49785 58.497519 28.49785 C 52.978885 28.49785 48.499683 24.02634 48.499683 18.495789 C 48.499683 12.975935 52.978885 8.504426 58.497519 8.504426 C 64.026869 8.504426 68.495355 12.975935 68.495355 18.495789 Z M 68.495355 18.495789 " transform="matrix(0.364532,0,0,0.365159,0,0)"/>
<path style="fill:none;stroke-width:1;stroke-linecap:butt;stroke-linejoin:miter;stroke:rgb(24.705882%,23.921569%,33.72549%);stroke-opacity:1;stroke-miterlimit:10;" d="M 99.496147 18.495789 C 99.496147 24.02634 95.02766 28.49785 89.498311 28.49785 C 83.979677 28.49785 79.500475 24.02634 79.500475 18.495789 C 79.500475 12.975935 83.979677 8.504426 89.498311 8.504426 C 95.02766 8.504426 99.496147 12.975935 99.496147 18.495789 Z M 99.496147 18.495789 " transform="matrix(0.364532,0,0,0.365159,0,0)"/>
<path style=" stroke:none;fill-rule:nonzero;fill:rgb(94.901961%,94.901961%,94.901961%);fill-opacity:1;" d="M 89.308594 27.023438 C 89.308594 31.054688 86.046875 34.324219 82.019531 34.324219 C 77.992188 34.324219 74.730469 31.054688 74.730469 27.023438 C 74.730469 22.988281 77.992188 19.71875 82.019531 19.71875 C 86.046875 19.71875 89.308594 22.988281 89.308594 27.023438 Z M 89.308594 27.023438 "/>
<path style="fill:none;stroke-width:1;stroke-linecap:butt;stroke-linejoin:miter;stroke:rgb(24.705882%,23.921569%,33.72549%);stroke-opacity:1;stroke-miterlimit:10;" d="M 249.999472 68.998172 C 249.999472 80.048577 241.041068 89.002294 230.003801 89.002294 C 218.955817 89.002294 209.997413 80.048577 209.997413 68.998172 C 209.997413 57.958465 218.955817 49.004748 230.003801 49.004748 C 241.041068 49.004748 249.999472 57.958465 249.999472 68.998172 Z M 249.999472 68.998172 " transform="matrix(0.364532,0,0,0.365159,0,0)"/>
<path style=" stroke:none;fill-rule:nonzero;fill:rgb(25.098039%,41.960784%,90.196078%);fill-opacity:1;" d="M 186.066406 23.1875 L 218.199219 23.1875 C 219.292969 23.1875 220.175781 24.074219 220.175781 25.167969 L 220.175781 31.066406 C 220.175781 32.160156 219.292969 33.046875 218.199219 33.046875 L 186.066406 33.046875 C 184.972656 33.046875 184.089844 32.160156 184.089844 31.066406 L 184.089844 25.167969 C 184.089844 24.074219 184.972656 23.1875 186.066406 23.1875 Z M 186.066406 23.1875 "/>
<path style=" stroke:none;fill-rule:nonzero;fill:rgb(25.098039%,41.960784%,90.196078%);fill-opacity:1;" d="M 237.464844 23.1875 L 269.597656 23.1875 C 270.691406 23.1875 271.578125 24.074219 271.578125 25.167969 L 271.578125 31.066406 C 271.578125 32.160156 270.691406 33.046875 269.597656 33.046875 L 237.464844 33.046875 C 236.371094 33.046875 235.488281 32.160156 235.488281 31.066406 L 235.488281 25.167969 C 235.488281 24.074219 236.371094 23.1875 237.464844 23.1875 Z M 237.464844 23.1875 "/>
<path style="fill:none;stroke-width:1;stroke-linecap:butt;stroke-linejoin:miter;stroke:rgb(24.705882%,23.921569%,33.72549%);stroke-opacity:1;stroke-miterlimit:10;" d="M 516.222656 55.498065 L 606.781831 55.498065 C 609.107158 55.498065 611.003853 57.391503 611.003853 59.723534 L 611.003853 78.27281 C 611.003853 80.604842 609.107158 82.49828 606.781831 82.49828 L 516.222656 82.49828 C 513.886613 82.49828 512.000633 80.604842 512.000633 78.27281 L 512.000633 59.723534 C 512.000633 57.391503 513.886613 55.498065 516.222656 55.498065 Z M 516.222656 55.498065 " transform="matrix(0.364532,0,0,0.365159,0,0)"/>
<path style="fill:none;stroke-width:1;stroke-linecap:butt;stroke-linejoin:miter;stroke:rgb(24.705882%,23.921569%,33.72549%);stroke-opacity:1;stroke-miterlimit:10;" d="M 657.221073 55.498065 L 747.780247 55.498065 C 750.105574 55.498065 752.00227 57.391503 752.00227 59.723534 L 752.00227 78.27281 C 752.00227 80.604842 750.105574 82.49828 747.780247 82.49828 L 657.221073 82.49828 C 654.895745 82.49828 652.99905 80.604842 652.99905 78.27281 L 652.99905 59.723534 C 652.99905 57.391503 654.895745 55.498065 657.221073 55.498065 Z M 657.221073 55.498065 " transform="matrix(0.364532,0,0,0.365159,0,0)"/>
<path style="fill:none;stroke-width:1;stroke-linecap:butt;stroke-linejoin:miter;stroke:rgb(24.705882%,23.921569%,33.72549%);stroke-opacity:1;stroke-miterlimit:10;" d="M 131.504223 165.499337 L 809.492504 165.499337 C 818.333034 165.499337 825.5019 172.666589 825.5019 181.502634 L 825.5019 419.49819 C 825.5019 428.334235 818.333034 435.501487 809.492504 435.501487 L 131.504223 435.501487 C 122.663693 435.501487 115.494827 428.334235 115.494827 419.49819 L 115.494827 181.502634 C 115.494827 172.666589 122.663693 165.499337 131.504223 165.499337 Z M 131.504223 165.499337 " transform="matrix(0.364532,0,0,0.365159,0,0)"/>
<path style="fill:none;stroke-width:1;stroke-linecap:butt;stroke-linejoin:miter;stroke:rgb(24.705882%,23.921569%,33.72549%);stroke-opacity:1;stroke-miterlimit:10;" d="M 544.640171 516.123129 C 567.925591 503.628577 581.898987 478.789235 580.495218 452.398771 C 579.080733 425.99761 562.546263 402.794968 538.049958 392.846395 C 513.564369 382.897821 485.531852 388.000477 466.114833 405.940001 M 498.73371 436.951738 L 498.73371 425.345069 L 539.657327 456.035884 L 530.238144 462.5292 " transform="matrix(0.364532,0,0,0.365159,-33.804407,-55.150666)"/>
<path style=" stroke:none;fill-rule:nonzero;fill:rgb(25.098039%,41.960784%,90.196078%);fill-opacity:1;" d="M 149.328125 89.027344 C 135.597656 89.027344 124.464844 100.175781 124.464844 113.929688 C 124.464844 127.683594 135.597656 138.832031 149.328125 138.832031 C 163.058594 138.832031 174.1875 127.683594 174.1875 113.929688 C 174.179688 100.179688 163.054688 89.03125 149.328125 89.027344 Z M 144.355469 125.136719 L 144.355469 102.722656 L 159.269531 113.929688 Z M 144.355469 125.136719 "/>
<path style=" stroke:none;fill-rule:nonzero;fill:rgb(27.45098%,27.058824%,35.686275%);fill-opacity:1;" d="M 139.652344 157.277344 C 139.652344 157.277344 135.1875 172.832031 134.992188 179.640625 C 134.796875 186.445312 134.023438 197.335938 134.605469 200.058594 C 135.1875 202.78125 136.933594 208.226562 136.933594 208.226562 C 136.933594 208.226562 140.621094 203.753906 141.980469 206.28125 C 141.980469 206.28125 141.789062 201.03125 140.816406 199.476562 C 140.816406 199.476562 141.207031 191.308594 141.207031 188.390625 C 141.207031 185.472656 146.058594 172.054688 146.445312 171.859375 C 146.835938 171.667969 148 175.554688 147.03125 184.113281 C 146.058594 192.671875 145.28125 207.648438 145.28125 209.203125 C 145.28125 210.761719 147.613281 213.871094 149.164062 212.898438 C 150.71875 211.925781 151.6875 203.558594 151.6875 203.558594 C 151.6875 203.558594 153.046875 186.058594 153.824219 184.113281 C 154.601562 182.167969 158.679688 159.804688 155.570312 158.054688 C 152.464844 156.304688 139.652344 157.277344 139.652344 157.277344 Z M 139.652344 157.277344 "/>
<path style=" stroke:none;fill-rule:nonzero;fill:rgb(37.647059%,36.470588%,50.980392%);fill-opacity:1;" d="M 142.953125 207.839844 C 142.757812 208.617188 141.980469 212.3125 141.980469 213.480469 C 141.980469 214.644531 142.757812 216.785156 139.457031 217.5625 C 136.242188 218.320312 136.710938 216.308594 136.199219 215.128906 C 136.1875 215.097656 136.171875 215.066406 136.15625 215.035156 C 135.574219 213.867188 136.933594 207.839844 137.128906 207.839844 C 137.242188 207.839844 138.160156 206.296875 138.898438 205.019531 C 139.210938 204.472656 139.757812 204.09375 140.382812 204 C 141.007812 203.90625 141.640625 204.101562 142.101562 204.535156 C 142.722656 205.136719 143.070312 205.964844 143.066406 206.828125 C 143.074219 207.167969 143.035156 207.507812 142.953125 207.839844 Z M 142.953125 207.839844 "/>
<use xlink:href="#surface5" mask="url(#mask0)"/>
<path style=" stroke:none;fill-rule:nonzero;fill:rgb(98.431373%,74.509804%,74.509804%);fill-opacity:1;" d="M 152.660156 123.046875 C 152.660156 125.304688 150.835938 127.132812 148.582031 127.132812 C 146.332031 127.132812 144.503906 125.304688 144.503906 123.046875 C 144.503906 120.792969 146.332031 118.964844 148.582031 118.964844 C 150.835938 118.964844 152.660156 120.792969 152.660156 123.046875 Z M 152.660156 123.046875 "/>
<path style=" stroke:none;fill-rule:nonzero;fill:rgb(98.431373%,74.509804%,74.509804%);fill-opacity:1;" d="M 145.28125 123.824219 L 144.699219 130.242188 L 151.6875 131.410156 C 151.6875 131.410156 150.914062 125.769531 151.496094 124.605469 C 152.078125 123.4375 145.28125 123.824219 145.28125 123.824219 Z M 145.28125 123.824219 "/>
<path style=" stroke:none;fill-rule:nonzero;fill:rgb(37.647059%,36.470588%,50.980392%);fill-opacity:1;" d="M 150.71875 128.882812 C 150.71875 128.882812 144.894531 128.296875 144.503906 128.882812 C 144.25 129.363281 144.117188 129.894531 144.117188 130.4375 C 144.117188 130.4375 141.789062 131.410156 141.398438 131.019531 C 141.011719 130.632812 140.621094 129.464844 139.457031 129.855469 C 138.292969 130.242188 135.964844 137.246094 135.964844 137.246094 C 135.964844 137.246094 136.546875 135.105469 137.515625 143.273438 C 138.488281 151.441406 138.292969 156.496094 138.488281 157.082031 C 138.679688 157.664062 137.515625 161.164062 144.503906 161.164062 C 151.496094 161.164062 156.542969 160.777344 156.542969 159.414062 C 156.542969 158.054688 155.378906 152.21875 156.542969 147.941406 C 157.707031 143.664062 159.453125 137.828125 159.453125 137.828125 L 157.125 130.242188 C 157.125 130.242188 154.796875 129.660156 154.210938 130.632812 C 153.628906 131.605469 152.078125 131.410156 152.078125 131.410156 C 152.078125 131.410156 151.882812 129.078125 150.71875 128.882812 Z M 150.71875 128.882812 "/>
<path style=" stroke:none;fill-rule:nonzero;fill:rgb(37.647059%,36.470588%,50.980392%);fill-opacity:1;" d="M 139.652344 130.242188 L 134.796875 128.105469 C 134.796875 128.105469 125.675781 121.101562 126.0625 114.878906 C 126.0625 114.878906 122.957031 111.960938 122.761719 115.074219 C 122.566406 118.1875 123.539062 125.1875 125.867188 127.519531 C 128.199219 129.855469 136.15625 137.246094 137.324219 137.4375 C 138.488281 137.632812 139.652344 130.242188 139.652344 130.242188 Z M 139.652344 130.242188 "/>
<path style=" stroke:none;fill-rule:nonzero;fill:rgb(98.431373%,74.509804%,74.509804%);fill-opacity:1;" d="M 123.148438 115.464844 C 123.148438 115.464844 119.460938 105.351562 122.761719 105.738281 C 126.0625 106.128906 125.285156 110.40625 125.285156 110.40625 L 125.285156 115.464844 Z M 123.148438 115.464844 "/>
<path style=" stroke:none;fill-rule:nonzero;fill:rgb(37.647059%,36.470588%,50.980392%);fill-opacity:1;" d="M 156.347656 130.632812 L 161.203125 128.492188 C 161.203125 128.492188 170.328125 121.492188 169.9375 115.269531 C 169.9375 115.269531 173.042969 112.351562 173.238281 115.464844 C 173.433594 118.574219 172.460938 125.574219 170.132812 127.910156 C 167.800781 130.242188 159.84375 137.632812 158.675781 137.828125 C 157.511719 138.023438 156.347656 130.632812 156.347656 130.632812 Z M 156.347656 130.632812 "/>
<path style=" stroke:none;fill-rule:nonzero;fill:rgb(98.431373%,74.509804%,74.509804%);fill-opacity:1;" d="M 172.851562 115.851562 C 172.851562 115.851562 176.539062 105.738281 173.238281 106.128906 C 169.9375 106.519531 170.714844 110.796875 170.714844 110.796875 L 170.714844 115.851562 Z M 172.851562 115.851562 "/>
<path style=" stroke:none;fill-rule:nonzero;fill:rgb(27.45098%,27.058824%,35.686275%);fill-opacity:1;" d="M 151.6875 118.1875 L 152.269531 117.796875 C 152.269531 117.796875 148.582031 115.65625 147.03125 116.824219 C 145.476562 117.992188 145.085938 118.964844 144.699219 119.351562 C 144.3125 119.742188 143.339844 121.882812 143.921875 122.660156 C 144.503906 123.4375 144.3125 123.597656 144.699219 124.292969 C 145.085938 124.992188 144.019531 127.800781 146.980469 128.632812 C 149.941406 129.464844 152.269531 125.964844 152.660156 125.1875 C 153.046875 124.410156 154.40625 119.160156 151.6875 118.1875 Z M 151.6875 118.1875 "/>
<path style=" stroke:none;fill-rule:nonzero;fill:rgb(27.45098%,27.058824%,35.686275%);fill-opacity:1;" d="M 300.796875 173.15625 C 300.796875 194.683594 314.28125 212.105469 330.945312 212.105469 "/>
<path style=" stroke:none;fill-rule:nonzero;fill:rgb(25.098039%,41.960784%,90.196078%);fill-opacity:1;" d="M 330.945312 212.105469 C 330.945312 190.335938 345.992188 172.71875 364.585938 172.71875 "/>
<path style=" stroke:none;fill-rule:nonzero;fill:rgb(25.098039%,41.960784%,90.196078%);fill-opacity:1;" d="M 311.722656 175.105469 C 311.722656 195.558594 320.320312 212.105469 330.945312 212.105469 "/>
<path style=" stroke:none;fill-rule:nonzero;fill:rgb(27.45098%,27.058824%,35.686275%);fill-opacity:1;" d="M 330.945312 212.105469 C 330.945312 184.289062 348.335938 161.777344 369.828125 161.777344 "/>
<path style=" stroke:none;fill-rule:nonzero;fill:rgb(65.882353%,65.882353%,65.882353%);fill-opacity:1;" d="M 324.601562 212.382812 C 324.601562 212.382812 328.878906 212.25 330.167969 211.332031 C 331.453125 210.410156 336.742188 209.3125 337.0625 210.789062 C 337.382812 212.261719 343.488281 218.117188 338.660156 218.15625 C 333.835938 218.195312 327.445312 217.40625 326.160156 216.621094 C 324.875 215.835938 324.601562 212.382812 324.601562 212.382812 Z M 324.601562 212.382812 "/>
<use xlink:href="#surface8" mask="url(#mask1)"/>
<path style="fill:none;stroke-width:1;stroke-linecap:butt;stroke-linejoin:miter;stroke:rgb(24.705882%,23.921569%,33.72549%);stroke-opacity:1;stroke-miterlimit:10;" d="M 274.999419 596.005143 L 512.000633 596.005143 " transform="matrix(0.364532,0,0,0.365159,0,0)"/>
<path style="fill:none;stroke-width:1;stroke-linecap:butt;stroke-linejoin:miter;stroke:rgb(24.705882%,23.921569%,33.72549%);stroke-opacity:1;stroke-miterlimit:10;" d="M 876.884132 596.475828 L 950.887405 596.475828 " transform="matrix(0.364532,0,0,0.365159,0,0)"/>
</g>
</svg>
